<svg width="32" height="32" viewBox="0 0 32 32" fill="none" xmlns="http://www.w3.org/2000/svg">
<path d="M29 4C30.6562 4 32 5.34312 32 7C32 7.94375 31.5562 8.83125 30.8 9.4L17.2 19.6C16.4875 20.1313 15.5125 20.1313 14.8 19.6L1.2 9.4C0.444563 8.83125 0 7.94375 0 7C0 5.34312 1.34312 4 3 4H29Z" fill="#6981FF"/>
<path d="M1.2 9.4L14.8 19.6C15.5125 20.1313 16.4875 20.1313 17.2 19.6L30.8 9.4C31.5562 8.83125 32 7.94375 32 7V24C32 26.2062 30.2062 28 28 28H4C1.79063 28 0 26.2062 0 24V7C0 7.94375 0.444563 8.83125 1.2 9.4Z" fill="#C3CDFF"/>
</svg>
