<svg width="20" height="16" viewBox="0 0 20 16" fill="none" xmlns="http://www.w3.org/2000/svg">
<path d="M18.125 0.5C19.1602 0.5 20 1.33945 20 2.375C20 2.96484 19.7227 3.51953 19.25 3.875L10.75 10.25C10.3047 10.582 9.69531 10.582 9.25 10.25L0.75 3.875C0.277852 3.51953 0 2.96484 0 2.375C0 1.33945 0.839453 0.5 1.875 0.5H18.125Z" fill="#6981FF"/>
<path d="M0.75 3.875L9.25 10.25C9.69531 10.582 10.3047 10.582 10.75 10.25L19.25 3.875C19.7227 3.51953 20 2.96484 20 2.375V13C20 14.3789 18.8789 15.5 17.5 15.5H2.5C1.11914 15.5 0 14.3789 0 13V2.375C0 2.96484 0.277852 3.51953 0.75 3.875Z" fill="#C3CDFF"/>
</svg>
