<svg width="33" height="32" viewBox="0 0 33 32" fill="none" xmlns="http://www.w3.org/2000/svg">
<path d="M28 0H4C1.79688 0 0 1.79688 0 3.94375V21.8875C0 24.0906 1.79688 25.8312 4 25.8312H10V31.025C10 31.6343 10.7031 31.9906 11.195 31.6312L19.0012 25.775H28.0012C30.2044 25.775 32.0013 23.9781 32.0013 21.8312V3.94375C32 1.79688 30.2562 0 28 0ZM8 14.9437C6.89062 14.9437 6 14.0531 6 13C6 11.9469 6.89062 11.0562 8 11.0562C9.10938 11.0562 10 11.9469 10 13C10 14.0531 9.1625 14.9437 8 14.9437ZM16 14.9437C14.8906 14.9437 14 14.0531 14 13C14 11.9469 14.8906 11.0562 16 11.0562C17.1094 11.0562 18 11.9469 18 13C18 14.0531 17.1625 14.9437 16 14.9437ZM24 14.9437C22.8906 14.9437 22 14.0531 22 13C22 11.9469 22.8906 11.0562 24 11.0562C25.1094 11.0562 26 11.9469 26 13C26 14.0531 25.1625 14.9437 24 14.9437Z" fill="#6981FF"/>
</svg>
