<svg width="32" height="32" viewBox="0 0 32 32" fill="none" xmlns="http://www.w3.org/2000/svg">
<path d="M15.9501 10.2687C12.0689 10.2562 9.45011 13.2062 9.50636 16.5875C9.55323 19.5794 9.27198 22.5794 8.67073 25.4937C8.49886 26.25 9.02223 27.095 9.83448 27.2669C10.5907 27.4309 11.4357 26.9153 11.6076 26.1031C12.2557 22.9706 12.5526 19.7531 12.5057 16.5969C12.4814 14.9125 13.6939 13.2562 15.9064 13.2687C17.867 13.3 19.4839 14.8544 19.5076 16.7375C19.5623 19.6812 19.3357 22.7531 18.8439 25.7062C18.711 26.4625 19.2657 27.2919 20.0857 27.4325C21.3276 27.6356 21.7576 26.4875 21.8045 26.1906C22.32 23.1219 22.562 19.8719 22.5076 16.7469C22.4501 13.1937 19.5126 10.3187 15.9501 10.2687ZM31.6314 12.725C31.4517 11.9687 30.662 11.3969 29.842 11.5762C29.0857 11.7559 28.522 12.5606 28.7014 13.365C28.9982 14.7087 29.006 15.7087 28.9982 17.2162C28.9904 18.0444 29.6545 18.7237 30.4826 18.7319C31.3026 18.7319 31.9901 18.0681 31.9982 17.24C32.0064 15.8625 32.0189 14.4875 31.6314 12.725ZM29.0689 7.05624C26.022 2.72062 21.0439 0.0749928 15.7376 -7.15939e-06C11.3789 -0.0546947 7.35011 1.55249 4.35011 4.55999C1.45198 7.45812 -0.108643 11.31 -0.0461426 15.41L-0.0539551 16.7537C-0.0227113 17.5875 0.625732 18.275 1.45386 18.3C1.46948 18.3062 1.48511 18.3062 1.50073 18.3062C2.25698 18.3062 2.97698 17.6581 2.94448 16.8456L2.9523 15.3694C2.96136 12.0875 4.20323 8.99999 6.52511 6.68124C8.95448 4.25937 12.2357 2.95499 15.7564 3.00187C20.092 3.00812 24.1751 5.22812 26.6689 8.77499C27.1454 9.45437 28.0751 9.61874 28.7545 9.14218C29.3814 8.66249 29.6001 7.73749 29.0689 7.05624Z" fill="#6981FF"/>
<path d="M16.0064 15.375C15.1782 15.375 14.5626 16.0469 14.5626 16.8187C14.6329 21.3344 14.0549 25.6875 12.8282 30.0375C12.6064 30.7062 12.9126 32 14.2189 32C14.8751 32 15.4764 31.5703 15.6639 30.9062C16.5076 27.9144 17.5451 23.0687 17.5076 16.875C17.5064 16.05 16.8376 15.375 16.0064 15.375ZM9.03761 9.03124C8.38761 8.50624 7.45011 8.59999 6.91886 9.24374C5.32824 11.2125 4.46136 13.7062 4.50011 16.2437C4.53917 18.595 4.35167 20.9544 3.93767 23.25C3.78924 24.0062 4.32824 24.8437 5.1408 24.9919C6.3983 25.2106 6.8358 24.0625 6.83455 23.7812C7.2798 21.2894 7.4908 18.7425 7.44386 16.1937C7.47511 14.3312 8.07511 12.5812 9.19386 11.1437C9.77511 10.4937 9.68136 9.55624 9.03761 9.03124ZM15.8189 5.13374C14.9126 5.11062 13.9439 5.21999 13.0126 5.44624C12.2082 5.57749 11.7082 6.38999 11.8957 7.25062C12.091 8.05499 12.8395 8.54749 13.652 8.35999C14.4001 8.20624 15.1064 8.12499 15.8376 8.13124C20.5482 8.20156 24.4376 11.975 24.5189 16.5437C24.5501 18.9106 24.4329 21.2375 24.1674 23.6437C24.0736 24.4637 24.6673 25.15 25.4874 25.3C26.5342 25.3687 27.0811 24.5581 27.1436 23.98C27.4327 21.4956 27.5576 18.9956 27.5185 16.4987C27.4126 10.3312 22.1939 5.22749 15.8189 5.13374Z" fill="#C3CDFF"/>
</svg>
