<svg width="497" height="194" viewBox="0 0 497 194" fill="none" xmlns="http://www.w3.org/2000/svg">
<mask id="mask0_130_484" style="mask-type:alpha" maskUnits="userSpaceOnUse" x="0" y="0" width="331" height="194">
<rect width="331" height="194" fill="#D9D9D9"/>
</mask>
<g transform="scale(1.5 1.5)" mask="url(#mask0_130_484)">
<g transform="translate(0 29)">
<g filter="url(#filter0_d_130_484)">
<path d="M206.944 42.8677L48.7925 134.168C72.8019 148.029 110.189 150.513 139.024 140.162L139.955 139.828C146.399 137.515 152.362 134.783 157.727 131.685L207.458 102.976L272.64 140.605L278.53 136.509C301.1 120.814 300.123 97.9082 276.242 82.8736L206.944 42.8677Z" fill="white"/>
</g>
<path fill-rule="evenodd" clip-rule="evenodd" d="M45.4306 113.751C43.5359 112.658 43.5359 110.884 45.4306 109.79L203.582 18.4896C205.477 17.3958 208.548 17.3958 210.443 18.4896L279.741 58.4956C279.791 58.5241 279.839 58.5533 279.887 58.5831C305.407 74.6497 306.451 99.1284 282.332 115.901L276.442 119.996C275.57 120.603 274.296 120.969 272.933 121.005C271.57 121.042 270.243 120.745 269.278 120.188L207.527 84.539L161.227 111.268C155.599 114.517 149.344 117.383 142.585 119.809L141.654 120.143C110.904 131.181 71.0346 128.532 45.4306 113.751ZM207.527 80.5781L272.709 118.207L278.599 114.112C301.169 98.4168 300.192 75.5106 276.311 60.476L207.012 20.4701L48.8612 111.771C50.0125 112.435 51.1945 113.074 52.4049 113.686C76.4365 125.84 111.64 127.619 139.093 117.765L140.023 117.43C146.467 115.117 152.431 112.385 157.796 109.288L207.527 80.5781Z" fill="#C3CDFF"/>
<path fill-rule="evenodd" clip-rule="evenodd" d="M45.4306 87.3938C43.5359 86.3 43.5359 84.5266 45.4306 83.4328L203.582 -7.86793C205.477 -8.96173 208.548 -8.96172 210.443 -7.86793L279.741 32.138C279.791 32.1666 279.839 32.1958 279.887 32.2256C305.407 48.2922 306.451 72.7709 282.332 89.5432L276.442 93.6389C275.57 94.2451 274.296 94.6113 272.933 94.6477C271.57 94.6842 270.243 94.3875 269.278 93.8304L207.527 58.1815L161.227 84.9107C155.599 88.1596 149.344 91.0253 142.585 93.4514L141.654 93.7856C110.904 104.823 71.0346 102.175 45.4306 87.3938ZM207.527 54.2205L272.709 91.8499L278.599 87.7541C301.169 72.0593 300.192 49.1531 276.311 34.1185L207.012 -5.88744L48.8612 85.4133C50.0125 86.0779 51.1945 86.7164 52.4049 87.3285C76.4365 99.4826 111.64 101.261 139.093 91.407L140.023 91.0729C146.467 88.7598 152.431 86.0277 157.796 82.9302L207.527 54.2205Z" fill="#6981FF"/>
<g filter="url(#filter1_d_130_484)">
<path d="M206.944 -28.2844L48.7925 63.0163C72.8019 76.8769 110.189 79.3604 139.024 69.01L139.955 68.6759C146.399 66.3628 152.362 63.6307 157.727 60.5331L207.458 31.8235L272.64 69.4529L278.53 65.3571C301.1 49.6623 300.123 26.756 276.242 11.7215L206.944 -28.2844Z" fill="white"/>
</g>
<path fill-rule="evenodd" clip-rule="evenodd" d="M45.4306 42.6003C43.5359 41.5065 43.5359 39.7331 45.4306 38.6393L203.582 -52.6614C205.477 -53.7552 208.548 -53.7552 210.443 -52.6614L279.741 -12.6555C279.791 -12.6269 279.839 -12.5977 279.887 -12.5679C305.407 3.49871 306.451 27.9774 282.332 44.7497L276.442 48.8455C275.57 49.4516 274.296 49.8178 272.933 49.8542C271.57 49.8907 270.243 49.594 269.278 49.0369L207.527 13.388L161.227 40.1172C155.599 43.3661 149.344 46.2318 142.585 48.658L141.654 48.9921C110.904 60.0299 71.0346 57.3815 45.4306 42.6003ZM207.527 9.42703L272.709 47.0564L278.599 42.9606C301.169 27.2658 300.192 4.35956 276.311 -10.675L207.012 -50.6809L48.8612 40.6198C50.0125 41.2844 51.1945 41.9229 52.4049 42.535C76.4365 54.6891 111.64 56.4676 139.093 46.6135L140.023 46.2794C146.467 43.9663 152.431 41.2342 157.796 38.1367L207.527 9.42703Z" fill="#6981FF"/>
<path fill-rule="evenodd" clip-rule="evenodd" d="M45.4306 16.2422C43.5359 15.1484 43.5359 13.375 45.4306 12.2812L203.582 -79.0195C205.477 -80.1133 208.548 -80.1133 210.443 -79.0195L279.741 -39.0136C279.791 -38.985 279.839 -38.9558 279.887 -38.926C305.407 -22.8594 306.451 1.61931 282.332 18.3916L276.442 22.4874C275.57 23.0935 274.296 23.4597 272.933 23.4962C271.57 23.5326 270.243 23.2359 269.278 22.6788L207.527 -12.9701L161.227 13.7591C155.599 17.0081 149.344 19.8737 142.585 22.2999L141.654 22.634C110.904 33.6718 71.0346 31.0234 45.4306 16.2422ZM207.527 -16.9311L272.709 20.6983L278.599 16.6025C301.169 0.907683 300.192 -21.9985 276.311 -37.0331L207.012 -77.039L48.8612 14.2617C50.0125 14.9263 51.1945 15.5648 52.4049 16.1769C76.4365 28.331 111.64 30.1095 139.093 20.2554L140.023 19.9213C146.467 17.6082 152.431 14.8761 157.796 11.7786L207.527 -16.9311Z" fill="#C3CDFF"/>
</g>
</g>
<defs>
<filter id="filter0_d_130_484" x="10.1953" y="7.35831" width="323.228" height="180.848" filterUnits="userSpaceOnUse" color-interpolation-filters="sRGB">
<feFlood flood-opacity="0" result="BackgroundImageFix"/>
<feColorMatrix in="SourceAlpha" type="matrix" values="0 0 0 0 0 0 0 0 0 0 0 0 0 0 0 0 0 0 127 0" result="hardAlpha"/>
<feOffset dy="3.08777"/>
<feGaussianBlur stdDeviation="19.2986"/>
<feComposite in2="hardAlpha" operator="out"/>
<feColorMatrix type="matrix" values="0 0 0 0 0 0 0 0 0 0 0 0 0 0 0 0 0 0 0.1 0"/>
<feBlend mode="normal" in2="BackgroundImageFix" result="effect1_dropShadow_130_484"/>
<feBlend mode="normal" in="SourceGraphic" in2="effect1_dropShadow_130_484" result="shape"/>
</filter>
<filter id="filter1_d_130_484" x="10.1953" y="-63.7938" width="323.228" height="180.848" filterUnits="userSpaceOnUse" color-interpolation-filters="sRGB">
<feFlood flood-opacity="0" result="BackgroundImageFix"/>
<feColorMatrix in="SourceAlpha" type="matrix" values="0 0 0 0 0 0 0 0 0 0 0 0 0 0 0 0 0 0 127 0" result="hardAlpha"/>
<feOffset dy="3.08777"/>
<feGaussianBlur stdDeviation="19.2986"/>
<feComposite in2="hardAlpha" operator="out"/>
<feColorMatrix type="matrix" values="0 0 0 0 0 0 0 0 0 0 0 0 0 0 0 0 0 0 0.1 0"/>
<feBlend mode="normal" in2="BackgroundImageFix" result="effect1_dropShadow_130_484"/>
<feBlend mode="normal" in="SourceGraphic" in2="effect1_dropShadow_130_484" result="shape"/>
</filter>
</defs>
</svg>
