<?xml version="1.0" encoding="UTF-8"?>
<svg fill="none" viewBox="0 0 170 43" xmlns="http://www.w3.org/2000/svg">
<g clip-path="url(#a)">
<path d="m21.625 4.5701v-4.7151h-14.134v0.016459c0 1.0739 0.36325 2.0613 0.97004 2.8513 0.00619 0.00823 0.01135 0.01543 0.01651 0.02263s0.01032 0.0144 0.01651 0.02263c0.11971 0.15223 0.24767 0.30035 0.38801 0.43612 0.78016 0.77351 1.8369 1.2755 3.0051 1.3536h5.0194v0.01646h4e-3v5.9h0.0165c1.0774 0 2.0681-0.3621 2.8606-0.96691l0.0124-0.01234c0.0041-0.00412 0.0093-0.0072 0.0145-0.01029v-1e-5c0.0051-0.00308 0.0103-0.00616 0.0144-0.01027 0.1527-0.11932 0.3013-0.24686 0.4376-0.38675 0.3054-0.30447 0.5655-0.65419 0.776-1.0327 0.3302-0.58836 0.5366-1.2549 0.582-1.9626v-0.01646c-0.0083-0.01075-0.0168-0.02135-0.0254-0.03177l0.0255 0.02768v-1.5018zm-3.4632 18.132c-0.7058 0.3539-1.5686 0.5884-2.3157 0.5884-1.4901 0-2.5097-0.901-2.5097-2.7361v-12.438h-11.896v0.01646c0 1.0944 0.37563 2.0983 1.0031 2.8965 0.11971 0.1523 0.24767 0.3004 0.38801 0.4362 0.78016 0.7735 1.8369 1.2754 3.005 1.3536 0.02163 0 0.04011 0.0031 0.06094 0.0067l0.00924 0.0015h2.679v-0.0041h0.00413v7.7309c0 4.8098 2.745 7.1961 6.943 7.0398 1.453-0.0371 2.5881-0.2757 3.9627-0.8229l-1.3333-4.0692zm12.615-14.524 0.355 2.23c1.4901-2.3864 3.4921-2.7361 5.4528-2.7361 2.002 0 3.9214 0.78173 4.9823 1.8391l-2.1589 4.1432c-0.9824-0.8229-1.8823-1.2508-3.4508-1.2508-2.5097 0-4.8254 1.329-4.8254 4.8879v10.167h-4.7883v-19.28h4.4333zm32.523-4e-5h-4.5901l-0.1569 2.662c-1.098-1.9132-3.5705-3.127-6.1587-3.127-5.651-0.04114-10.084 3.4397-10.084 10.088 0 6.764 4.2351 10.282 9.9645 10.245 2.1589-0.0412 5.1804-1.1356 6.2784-3.4026l0.2353 2.8142h4.5117v-19.28zm-10.472 15.487c-3.1784 0-5.7294-2.193-5.7294-5.8671 0-3.6783 2.551-5.8301 5.7294-5.826 7.5333 0 7.5333 11.693 0 11.693zm29.531 3.7893v-10.088c0-2.9335-1.6098-5.1635-4.6685-5.1635-2.9432 0-4.9451 2.4645-4.9451 5.3981v9.8539h-4.747v-19.317h3.7976l0.7925 2.6209c1.9607-1.9173 3.9214-2.8924 6.3568-2.8924 4.5489 0 8.1979 3.4025 8.1979 9.463v10.13h-4.7842v-0.0041zm17.622-15.873c1.8413 0 3.4093 0.4279 4.7843 1.7198l2.671-3.1228c-2.238-1.9544-4.512-2.5427-7.5337-2.5427-3.5293 0-8.1607 1.5676-8.1607 6.0234 0 4.3777 4.3548 5.7067 8.0038 5.9823 2.7446 0.1564 3.8426 0.7036 3.8426 2.0325 0 1.4072-1.688 2.3493-3.492 2.3082-2.1586-0.0411-5.2957-1.1726-6.6703-2.699l-2.3528 3.4026c2.8234 2.9294 5.8862 3.4396 8.9451 3.4396 5.531 0 8.317-2.9336 8.317-6.3362 0-5.1224-4.627-5.9452-8.276-6.1798-2.4683-0.1563-3.6076-0.8599-3.6076-2.1106 0-1.2138 1.2549-1.9173 3.5293-1.9173zm25.051 15.869v-10.319c0-2.5427-1.333-4.8508-3.962-4.8508-2.588 0-4.12 2.3081-4.12 4.8508v10.323h-4.788v-19.317h4.433l0.355 2.3452c1.02-1.9543 3.257-2.6579 5.102-2.6579 2.316 0 4.627 0.93808 5.73 3.596 1.725-2.7361 3.962-3.5178 6.472-3.5178 5.494 0 8.198 3.3614 8.198 9.1503v10.401h-4.788v-10.401c0-2.5426-1.061-4.6944-3.649-4.6944-2.589 0-4.198 2.2299-4.198 4.7685v10.323h-4.785zm22.13-19.35h4.788v19.358h-4.788v-19.358zm16.763 15.289c-1.49 0-2.51-0.901-2.51-2.7361v-7.8584h2.179c0.083 0.0041 0.166 0.0082 0.252 0.0082 0.087 0 0.17-0.0041 0.252-0.0082 1.197-0.0617 2.279-0.5719 3.075-1.3619 0.859-0.8516 1.391-2.0325 1.391-3.3326v-0.01646h-7.157v-3.526l-4.735 1.1808v14.91c0 4.8097 2.745 7.1961 6.943 7.0397 1.453-0.037 2.588-0.2756 3.963-0.8228l-1.333-4.0651c-0.71 0.3539-1.573 0.5884-2.32 0.5884zm-39.054 15.528 0.607-1.0368c0.508 0.3539 1.247 0.5637 1.944 0.5637 0.587 0 0.929-0.1893 0.929-0.5061 0-0.3291-0.297-0.4855-1.048-0.5513-1.404-0.1111-2.242-0.7282-2.242-1.7074 0-1.0245 0.95-1.7198 2.407-1.7198 0.85 0 1.614 0.2304 2.188 0.6171l-0.599 1.0121c-0.454-0.288-0.962-0.4196-1.523-0.4196-0.685 0-1.04 0.1769-1.04 0.506 0 0.2963 0.276 0.4526 0.949 0.5185 1.581 0.1522 2.353 0.6953 2.353 1.7403 0 1.0574-0.937 1.7527-2.44 1.7527-0.949 0-1.791-0.2757-2.485-0.7694zm7.047-1.6087h4.21c0.244-2.0119-0.85-3.3121-2.832-3.3121-1.713 0-2.873 1.1438-2.873 2.839 0 1.7403 1.173 2.8512 3.018 2.8512 0.949 0 1.824-0.3415 2.398-0.9257l-0.817-0.8352c-0.351 0.3209-0.937 0.5184-1.523 0.5184-0.884 0-1.482-0.4526-1.581-1.1356zm2.831-0.9669h-2.807c0.108-0.7282 0.628-1.1479 1.404-1.1438 0.817 0 1.35 0.4403 1.403 1.1438zm2.118 0.4856c0-1.6951 1.18-2.8389 2.939-2.8389 0.805 0 1.515 0.288 2.097 0.8475l-0.851 0.9134c-0.309-0.3086-0.738-0.4855-1.192-0.4855-0.904 0-1.536 0.6377-1.536 1.5635 0 0.9257 0.619 1.5634 1.536 1.5634 0.487 0 0.928-0.1893 1.259-0.5266l0.862 0.9257c-0.619 0.5966-1.312 0.8805-2.154 0.8805-1.8-0.0042-2.96-1.115-2.96-2.843zm11.355 2.7196v-5.4434h-1.469v2.8513c0 0.8352-0.52 1.4195-1.304 1.4195-0.706 0-1.16-0.4855-1.16-1.3207v-2.9501h-1.47v3.0406c0 1.5388 0.896 2.5098 2.254 2.5098 0.718 0 1.35-0.2634 1.779-0.7365l0.099 0.6295h1.271zm5.734-5.0566-0.64 1.1356c-0.309-0.2098-0.574-0.288-0.883-0.288-0.805 0-1.325 0.5595-1.325 1.5511v2.6537h-1.47v-5.4391h1.272l0.119 0.683c0.421-0.5596 0.937-0.7941 1.536-0.7941 0.508 0.0041 1.04 0.1687 1.391 0.4978zm2.147-0.3827h-1.47v5.4393h1.47v-5.4393zm5.168 5.2377c-0.455 0.2098-0.851 0.288-1.338 0.288-1.114 0-1.857-0.5966-1.857-2.0161v-2.3123h-0.983v-1.2014h0.983v-1.3865l1.457-0.1523v1.5429h1.469v1.2015h-1.469v2.3123c0 0.4937 0.256 0.7488 0.697 0.7488 0.211 0 0.463-0.0658 0.653-0.1523l0.388 1.1274zm2.872 2.6372 3.414-7.8749h-1.593l-0.871 2.1271-0.632 1.6623-0.573-1.6623-0.805-2.1271h-1.581l2.142 5.3734-1.081 2.5015h1.58z" clip-rule="evenodd" fill="#1C2745" fill-rule="evenodd"/>
<path d="m21.493 5.9278c-0.7801-0.7735-1.8369-1.2755-3.005-1.3536h-1.5769v5.9h0.0165c1.0774 0 2.0681-0.362 2.8606-0.96685 0.0042-0.00411 0.0083-0.00823 0.0124-0.01234 0.0083-0.00823 0.0206-0.01234 0.0289-0.02057 0.1527-0.11932 0.3013-0.24686 0.4375-0.38675 0.3055-0.30447 0.5656-0.65419 0.7761-1.0327 0.3302-0.58836 0.5366-1.2549 0.582-1.9626v-0.01645c-0.0413-0.05349-0.0867-0.10286-0.1321-0.14812z" fill="#DD112D"/>
<path d="m21.626 4.5701v-4.7151h-14.134v0.016459c0 1.0739 0.36325 2.0613 0.97003 2.8513 0.01239 0.01646 0.02064 0.0288 0.03303 0.04526 0.1197 0.15223 0.24767 0.30035 0.38801 0.43612 0.78016 0.77351 1.8368 1.2755 3.005 1.3536h5.0194v0.01646h1.5769c1.1681 0.07817 2.2249 0.58013 3.005 1.3536 0.0454 0.04526 0.0908 0.09463 0.1362 0.14401v-1.5018z" fill="#FF2D4E"/>
</g>
<defs>
<clipPath id="a">
<rect width="170" height="42.988" fill="#fff"/>
</clipPath>
</defs>
</svg>
