<svg width="24" height="24" viewBox="0 0 24 24" fill="none" xmlns="http://www.w3.org/2000/svg">
<rect width="24" height="24" fill="white"/>
<path d="M11.6471 15.7692C12.5567 15.7692 13.2941 16.4928 13.2941 17.3846C13.2941 18.2764 12.5567 19 11.6471 19C10.7374 19 10 18.2764 10 17.3846C10 16.4928 10.7374 15.7692 11.6471 15.7692ZM11.6471 10.3846C12.5567 10.3846 13.2941 11.1082 13.2941 12C13.2941 12.8918 12.5567 13.6154 11.6471 13.6154C10.7374 13.6154 10 12.8918 10 12C10 11.1082 10.7374 10.3846 11.6471 10.3846ZM11.6471 8.23077C10.7374 8.23077 10 7.50721 10 6.61538C10 5.72322 10.7374 5 11.6471 5C12.5567 5 13.2941 5.72322 13.2941 6.61538C13.2941 7.50721 12.5567 8.23077 11.6471 8.23077Z" fill="#CCCCCC"/>
<rect opacity="0.2" width="24" height="24" rx="2" fill="#CCCCCC"/>
</svg>
