<svg width="20" height="20" viewBox="0 0 20 20" fill="none" xmlns="http://www.w3.org/2000/svg">
<g clip-path="url(#clip0_15564_1125)">
<path d="M17.5311 3.53095C17.8249 3.2372 17.8249 2.76221 17.5311 2.47158C17.2374 2.18096 16.7624 2.17783 16.4718 2.47158L10.7843 8.15904C10.5437 8.05592 10.2812 7.99967 10.0031 7.99967C8.89994 7.99967 8.00307 8.89654 8.00307 9.99966C8.00307 11.1028 8.89994 11.9996 10.0031 11.9996C11.1062 11.9996 12.003 11.1028 12.003 9.99966C12.003 9.72153 11.9468 9.45903 11.8437 9.21841L17.5311 3.53095Z" fill="#6981FF"/>
<path opacity="0.4" d="M12.9656 5.97497L11.525 7.41559C11.0781 7.15309 10.5563 6.99997 10 6.99997C8.34377 6.99997 7.00003 8.34371 7.00003 9.99995C7.00003 11.6562 8.34377 12.9999 10 12.9999C11.6562 12.9999 13 11.6562 13 9.99995H15C15 12.2968 13.45 14.2343 11.3375 14.8187C11.0875 14.3343 10.5844 13.9999 10 13.9999C9.41564 13.9999 8.91251 14.3343 8.66252 14.8187C7.0469 14.3718 5.76254 13.1343 5.24379 11.5499C5.69379 11.2906 5.99691 10.8062 5.99691 10.2468C5.99691 9.64057 5.63754 9.1187 5.12191 8.8812C5.63129 6.65934 7.6219 4.99998 10 4.99998C11.1094 4.99998 12.1344 5.36248 12.9656 5.97497ZM13.6781 5.26248C12.6625 4.46873 11.3875 3.99999 10 3.99999C7.0969 3.99999 4.67817 6.05935 4.12192 8.79995C3.47505 8.96558 3.00005 9.55307 3.00005 10.2499C3.00005 10.9937 3.54068 11.6124 4.25317 11.7312C4.85629 13.7405 6.48753 15.3062 8.53439 15.8218C8.68127 16.4937 9.28126 16.9999 10 16.9999C10.7188 16.9999 11.3187 16.4937 11.4656 15.8187C14.0719 15.1655 16 12.8093 16 9.99995H18C18 14.4187 14.4187 17.9999 10 17.9999C5.58129 17.9999 2.00006 14.4187 2.00006 9.99995C2.00006 5.58123 5.58129 2 10 2C11.9406 2 13.7156 2.69062 15.1031 3.83749L13.6812 5.25935L13.6781 5.26248Z" fill="#6981FF"/>
</g>
<defs>
<clipPath id="clip0_15564_1125">
<rect width="15.9999" height="15.9999" fill="white" transform="translate(2.00006 2)"/>
</clipPath>
</defs>
</svg>
