<svg width="7" height="7" viewBox="0 0 7 7" fill="none" xmlns="http://www.w3.org/2000/svg">
<g clip-path="url(#clip0_119_229)">
<path d="M2.44162 3.42856L3.09483 3.99566C3.20117 4.08774 3.20985 4.24678 3.11328 4.35036C3.00803 4.4529 2.85286 4.46127 2.74544 4.36815L1.87738 3.6148C1.82302 3.56772 1.79166 3.49971 1.79166 3.42856C1.79166 3.35741 1.82302 3.2894 1.87738 3.24232L2.74544 2.48897C2.85286 2.39584 3.00803 2.40422 3.11328 2.50675C3.20985 2.61034 3.20117 2.75996 3.09483 2.86146L2.44162 3.42856ZM3.96072 2.86146C3.85438 2.75996 3.8457 2.61034 3.94227 2.50675C4.03776 2.40422 4.20269 2.39584 4.31011 2.48897L5.17817 3.24232C5.23242 3.2894 5.26389 3.35741 5.26389 3.42856C5.26389 3.49971 5.23242 3.56772 5.17817 3.6148L4.31011 4.36815C4.20269 4.46127 4.03776 4.4529 3.94227 4.35036C3.8457 4.24678 3.85438 4.08774 3.96072 3.99566L4.61393 3.42856L3.96072 2.86146Z" fill="#6981FF"/>
<path opacity="0.4" d="M0.75 1.75446C0.75 1.38459 1.06087 1.08482 1.44444 1.08482H5.61111C5.99414 1.08482 6.30556 1.38459 6.30556 1.75446V5.10268C6.30556 5.47203 5.99414 5.77232 5.61111 5.77232H1.44444C1.06087 5.77232 0.75 5.47203 0.75 5.10268V1.75446ZM3.94227 2.50676C3.8457 2.61035 3.85438 2.75997 3.96072 2.86147L4.61393 3.42857L3.96072 3.99567C3.85438 4.08775 3.8457 4.24679 3.94227 4.35038C4.03776 4.45291 4.20269 4.46128 4.31011 4.36816L5.17817 3.61481C5.23242 3.56773 5.26389 3.49972 5.26389 3.42857C5.26389 3.35742 5.23242 3.28941 5.17817 3.24233L4.31011 2.48898C4.20269 2.39585 4.03776 2.40423 3.94227 2.50676ZM3.09484 2.86147C3.20117 2.75997 3.20985 2.61035 3.11328 2.50676C3.00803 2.40423 2.85286 2.39585 2.74544 2.48898L1.87739 3.24233C1.82303 3.28941 1.79167 3.35742 1.79167 3.42857C1.79167 3.49972 1.82303 3.56773 1.87739 3.61481L2.74544 4.36816C2.85286 4.46128 3.00803 4.45291 3.11328 4.35038C3.20985 4.24679 3.20117 4.08775 3.09484 3.99567L2.44162 3.42857L3.09484 2.86147Z" fill="#6981FF"/>
</g>
<defs>
<clipPath id="clip0_119_229">
<rect width="5.55556" height="5.35714" fill="white" transform="translate(0.75 0.75)"/>
</clipPath>
</defs>
</svg>
