<svg width="32" height="32" viewBox="0 0 32 32" fill="none" xmlns="http://www.w3.org/2000/svg">
<g clip-path="url(#clip0_142_1184)">
<path d="M9.74375 15.9999L13.5063 19.3874C14.1188 19.9374 14.1688 20.8874 13.6125 21.5062C13.0063 22.1187 12.1125 22.1687 11.4937 21.6124L6.49375 17.1124C6.18063 16.8312 6 16.4249 6 15.9999C6 15.5749 6.18063 15.1687 6.49375 14.8874L11.4937 10.3874C12.1125 9.8312 13.0063 9.8812 13.6125 10.4937C14.1688 11.1124 14.1188 12.0062 13.5063 12.6124L9.74375 15.9999ZM18.4937 12.6124C17.8812 12.0062 17.8313 11.1124 18.3875 10.4937C18.9375 9.8812 19.8875 9.8312 20.5063 10.3874L25.5063 14.8874C25.8188 15.1687 26 15.5749 26 15.9999C26 16.4249 25.8188 16.8312 25.5063 17.1124L20.5063 21.6124C19.8875 22.1687 18.9375 22.1187 18.3875 21.5062C17.8313 20.8874 17.8812 19.9374 18.4937 19.3874L22.2563 15.9999L18.4937 12.6124Z" fill="#6981FF"/>
<path opacity="0.4" d="M0 6C0 3.79063 1.79063 2 4 2H28C30.2062 2 32 3.79063 32 6V26C32 28.2062 30.2062 30 28 30H4C1.79063 30 0 28.2062 0 26V6ZM18.3875 10.4937C17.8313 11.1125 17.8812 12.0063 18.4937 12.6125L22.2563 16L18.4937 19.3875C17.8812 19.9375 17.8313 20.8875 18.3875 21.5063C18.9375 22.1188 19.8875 22.1687 20.5063 21.6125L25.5063 17.1125C25.8188 16.8312 26 16.425 26 16C26 15.575 25.8188 15.1687 25.5063 14.8875L20.5063 10.3875C19.8875 9.83125 18.9375 9.88125 18.3875 10.4937ZM13.5063 12.6125C14.1188 12.0063 14.1688 11.1125 13.6125 10.4937C13.0063 9.88125 12.1125 9.83125 11.4937 10.3875L6.49375 14.8875C6.18063 15.1687 6 15.575 6 16C6 16.425 6.18063 16.8312 6.49375 17.1125L11.4937 21.6125C12.1125 22.1687 13.0063 22.1188 13.6125 21.5063C14.1688 20.8875 14.1188 19.9375 13.5063 19.3875L9.74375 16L13.5063 12.6125Z" fill="#6981FF"/>
</g>
<defs>
<clipPath id="clip0_142_1184">
<rect width="32" height="32" fill="white"/>
</clipPath>
</defs>
</svg>
