<svg width="50" height="50" viewBox="0 0 50 50" fill="none" xmlns="http://www.w3.org/2000/svg">
<path d="M24.9636 16.0464C18.9095 16.0268 14.8247 20.636 14.9125 25.919C14.9856 30.5936 14.5469 35.2809 13.609 39.8345C13.3409 41.016 14.1573 42.3363 15.4243 42.6049C16.6039 42.8612 17.922 42.0556 18.1901 40.7866C19.201 35.8922 19.6641 30.8651 19.591 25.9337C19.553 23.3019 21.4443 20.7141 24.8954 20.7337C27.9536 20.7825 30.4757 23.2111 30.5127 26.1534C30.598 30.7528 30.2446 35.5524 29.4774 40.1665C29.2702 41.3481 30.1353 42.6439 31.4145 42.8636C33.3516 43.181 34.0223 41.3871 34.0954 40.9233C34.8996 36.1286 35.277 31.0506 35.1922 26.168C35.1025 20.6165 30.5205 16.1245 24.9636 16.0464ZM49.4237 19.8841C49.1434 18.7025 47.9116 17.809 46.6326 18.0893C45.453 18.37 44.5736 19.6273 44.8534 20.8841C45.3165 22.9836 45.3287 24.546 45.3165 26.9014C45.3043 28.1953 46.3401 29.2568 47.6318 29.2695C48.9109 29.2695 49.9833 28.2324 49.996 26.9385C50.0086 24.7862 50.0281 22.6379 49.4237 19.8841ZM45.4266 11.027C40.674 4.25291 32.909 0.119293 24.6322 0.00211065C17.8332 -0.0833351 11.5491 2.42779 6.86959 7.12682C2.34901 11.655 -0.0853032 17.6733 0.0121862 24.0792L0 26.1788C0.0487349 27.4814 1.0602 28.5556 2.35193 28.5947C2.3763 28.6044 2.40068 28.6044 2.42505 28.6044C3.60467 28.6044 4.72775 27.5918 4.67705 26.3223L4.68924 24.0158C4.70338 18.8881 6.64049 14.064 10.2622 10.4411C14.0516 6.65711 19.1698 4.61911 24.6614 4.69235C31.4242 4.70211 37.7932 8.17072 41.683 13.7125C42.4263 14.774 43.8766 15.0308 44.9363 14.2862C45.9141 13.5367 46.2553 12.0915 45.4266 11.027Z" fill="#6981FF"/>
<path d="M25.0514 24.0245C23.7596 24.0245 22.7994 25.0743 22.7994 26.2803C22.909 33.3356 22.0074 40.1371 20.094 46.9337C19.7479 47.9786 20.2256 50 22.2632 50C23.2868 50 24.2247 49.3286 24.5171 48.2911C25.8332 43.6165 27.4516 36.0455 27.3931 26.3682C27.3911 25.0792 26.348 24.0245 25.0514 24.0245ZM14.1813 14.1128C13.1674 13.2925 11.7051 13.439 10.8764 14.4448C8.3953 17.5209 7.04312 21.4172 7.10357 25.3819C7.16449 29.0555 6.87203 32.7419 6.22626 36.3287C5.99472 37.5103 6.83547 38.8188 8.10293 39.0503C10.0644 39.392 10.7468 37.5982 10.7449 37.1587C11.4394 33.2653 11.7685 29.286 11.6953 25.3038C11.7441 22.3937 12.68 19.6595 14.425 17.4135C15.3317 16.3979 15.1854 14.9331 14.1813 14.1128ZM24.7589 8.02321C23.3453 7.98708 21.8342 8.15797 20.3816 8.51148C19.1269 8.71655 18.347 9.98602 18.6395 11.3307C18.9441 12.5875 20.1116 13.357 21.3789 13.064C22.5459 12.8238 23.6475 12.6969 24.7881 12.7066C32.1359 12.8165 38.2027 18.7122 38.3294 25.8506C38.3782 29.5487 38.1954 33.1843 37.7811 36.9439C37.6349 38.2251 38.561 39.2973 39.8401 39.5317C41.4731 39.6391 42.3261 38.3725 42.4236 37.4693C42.8745 33.5876 43.0693 29.6815 43.0084 25.7803C42.8432 16.144 34.7028 8.16969 24.7589 8.02321Z" fill="#C3CDFF"/>
</svg>
