<svg width="20" height="20" viewBox="0 0 20 20" fill="none" xmlns="http://www.w3.org/2000/svg">
<path opacity="0.4" d="M2 12V16C2 17.1031 2.89688 18 4 18H16C17.1031 18 18 17.1031 18 16V12H12V13C12 13.5531 11.5531 14 11 14H9C8.44688 14 8 13.5531 8 13V12H2Z" fill="#6981FF"/>
<path d="M14 6H16.5C17.3 6 18 6.7 18 7.5V12H2V7.5C2 6.7 2.7 6 3.5 6H6V4.75V4.5C6 3.7 6.7 3 7.5 3H7.75H12.25H12.5C13.3 3 14 3.7 14 4.5V4.75V6ZM12.5 6V4.75C12.5 4.6125 12.3875 4.5 12.25 4.5H7.75C7.6125 4.5 7.5 4.6125 7.5 4.75V6H12.5Z" fill="#6981FF"/>
</svg>
