<svg width="20" height="20" viewBox="0 0 20 20" fill="none" xmlns="http://www.w3.org/2000/svg">
<path opacity="0.4" d="M2 11.4675C2 11.76 2.24 12 2.5325 12H7.865C7.87 12 7.875 12 7.8825 12C7.2175 11.4125 6.8 10.555 6.8 9.6C6.8 9.41 6.8175 9.225 6.8475 9.0425C6.5075 8.885 6.13 8.8 5.7325 8.8H4.665C3.195 8.8 2 9.995 2 11.4675ZM3.6 6C3.6 6.53043 3.81071 7.03914 4.18579 7.41421C4.56086 7.78929 5.06957 8 5.6 8C6.13043 8 6.63914 7.78929 7.01421 7.41421C7.38929 7.03914 7.6 6.53043 7.6 6C7.6 5.46957 7.38929 4.96086 7.01421 4.58579C6.63914 4.21071 6.13043 4 5.6 4C5.06957 4 4.56086 4.21071 4.18579 4.58579C3.81071 4.96086 3.6 5.46957 3.6 6ZM12.1175 12C12.1225 12 12.1275 12 12.135 12H17.4675C17.7625 12 18 11.76 18 11.4675C18 9.995 16.805 8.8 15.3325 8.8H14.265C13.8675 8.8 13.49 8.8875 13.15 9.0425C13.1825 9.2225 13.1975 9.41 13.1975 9.6C13.1975 10.555 12.7775 11.4125 12.115 12H12.1175ZM12.8 6C12.8 6.53043 13.0107 7.03914 13.3858 7.41421C13.7609 7.78929 14.2696 8 14.8 8C15.3304 8 15.8391 7.78929 16.2142 7.41421C16.5893 7.03914 16.8 6.53043 16.8 6C16.8 5.46957 16.5893 4.96086 16.2142 4.58579C15.8391 4.21071 15.3304 4 14.8 4C14.2696 4 13.7609 4.21071 13.3858 4.58579C13.0107 4.96086 12.8 5.46957 12.8 6Z" fill="#6981FF"/>
<path d="M10 11.9997C10.3152 11.9997 10.6273 11.9376 10.9185 11.817C11.2096 11.6964 11.4742 11.5196 11.6971 11.2968C11.9199 11.0739 12.0967 10.8093 12.2173 10.5181C12.3379 10.227 12.4 9.91488 12.4 9.59971C12.4 9.28453 12.3379 8.97245 12.2173 8.68127C12.0967 8.39009 11.9199 8.12551 11.6971 7.90265C11.4742 7.67979 11.2096 7.50301 10.9185 7.3824C10.6273 7.26179 10.3152 7.19971 10 7.19971C9.68484 7.19971 9.37275 7.26179 9.08157 7.3824C8.79039 7.50301 8.52582 7.67979 8.30296 7.90265C8.0801 8.12551 7.90331 8.39009 7.7827 8.68127C7.66209 8.97245 7.60001 9.28453 7.60001 9.59971C7.60001 9.91488 7.66209 10.227 7.7827 10.5181C7.90331 10.8093 8.0801 11.0739 8.30296 11.2968C8.52582 11.5196 8.79039 11.6964 9.08157 11.817C9.37275 11.9376 9.68484 11.9997 10 11.9997ZM8.53251 12.7997C6.69251 12.7997 5.20001 14.2922 5.20001 16.1322C5.20001 16.4997 5.49751 16.7997 5.86751 16.7997H14.135C14.5025 16.7997 14.8025 16.5022 14.8025 16.1322C14.8 14.2922 13.3075 12.7997 11.4675 12.7997H8.53501H8.53251Z" fill="#6981FF"/>
</svg>
