<svg width="20" height="20" viewBox="0 0 20 20" fill="none" xmlns="http://www.w3.org/2000/svg">
<path opacity="0.4" d="M2 4.66699V6.96421C2.51667 7.14754 2.88889 7.64199 2.88889 8.22254C2.88889 8.8031 2.51667 9.29754 2 9.48087V11.7781H18V9.48087C17.4833 9.29754 17.1111 8.8031 17.1111 8.22254C17.1111 7.64199 17.4833 7.14754 18 6.96421V4.66699H2ZM5.55555 6.44477H7.33332V7.33365V9.11143V10.0003H5.55555V9.11143V7.33365V6.44477ZM9.1111 6.44477H10.8889V7.33365V9.11143V10.0003H9.1111V9.11143V7.33365V6.44477ZM12.6666 6.44477H14.4444V7.33365V9.11143V10.0003H12.6666V9.11143V7.33365V6.44477Z" fill="#6981FF"/>
<path d="M7.33332 7.33322V9.111V9.99989H5.55555V9.111V7.33322V6.44434H7.33332V7.33322ZM10.8889 7.33322V9.111V9.99989H9.1111V9.111V7.33322V6.44434H10.8889V7.33322ZM14.4444 7.33322V9.111V9.99989H12.6666V9.111V7.33322V6.44434H14.4444V7.33322ZM2 11.7777H18V15.3332H15.7778V14.4443V13.9999H14.8889V14.4443V15.3332H12.2222V14.4443V13.9999H11.3333V14.4443V15.3332H8.66665V14.4443V13.9999H7.77777V14.4443V15.3332H5.1111V14.4443V13.9999H4.22222V14.4443V15.3332H2V11.7777Z" fill="#6981FF"/>
</svg>
