<svg width="16" height="16" viewBox="0 0 16 16" fill="none" xmlns="http://www.w3.org/2000/svg">
<path d="M13 0.854126C14.1031 0.854126 15 1.76809 15 2.89579V13.1041C15 14.2302 14.1031 15.1458 13 15.1458H3C1.89531 15.1458 1 14.2302 1 13.1041V2.89579C1 1.76809 1.89531 0.854126 3 0.854126H13ZM11.6187 6.58993C11.9594 6.24221 11.9594 5.67437 11.6187 5.32665C11.2781 4.97893 10.7219 4.97893 10.3813 5.32665L7 8.77834L5.61875 7.36832C5.27812 7.0206 4.72187 7.0206 4.38125 7.36832C4.03969 7.71604 4.03969 8.28388 4.38125 8.6316L6.38125 10.6733C6.72188 11.021 7.27812 11.021 7.61875 10.6733L11.6187 6.58993Z" fill="#6981FF"/>
</svg>
