<svg width="14" height="14" viewBox="0 0 14 14" fill="none" xmlns="http://www.w3.org/2000/svg">
<path d="M0.875 7C0.875 3.61758 3.61758 0.875 7 0.875C10.3824 0.875 13.125 3.61758 13.125 7C13.125 10.3824 10.3824 13.125 7 13.125C3.61758 13.125 0.875 10.3824 0.875 7Z" fill="#F0F2FF"/>
<mask id="path-2-inside-1_828_11161" fill="white">
<path fill-rule="evenodd" clip-rule="evenodd" d="M6.43398 9.05898C6.26445 9.23125 5.98555 9.23125 5.81602 9.05898L4.06602 7.30898C3.89375 7.13945 3.89375 6.86055 4.06602 6.69102C4.23555 6.51875 4.51445 6.51875 4.68398 6.69102L6.125 8.13203L9.31602 4.94102C9.48555 4.76875 9.76445 4.76875 9.93398 4.94102C10.1062 5.11055 10.1062 5.38945 9.93398 5.55898L6.43398 9.05898ZM14 7C14 10.8664 10.8664 14 7 14C3.13359 14 0 10.8664 0 7C0 3.13359 3.13359 0 7 0C10.8664 0 14 3.13359 14 7ZM7 0.875C3.61758 0.875 0.875 3.61758 0.875 7C0.875 10.3824 3.61758 13.125 7 13.125C10.3824 13.125 13.125 10.3824 13.125 7C13.125 3.61758 10.3824 0.875 7 0.875Z"/>
</mask>
<path fill-rule="evenodd" clip-rule="evenodd" d="M6.43398 9.05898C6.26445 9.23125 5.98555 9.23125 5.81602 9.05898L4.06602 7.30898C3.89375 7.13945 3.89375 6.86055 4.06602 6.69102C4.23555 6.51875 4.51445 6.51875 4.68398 6.69102L6.125 8.13203L9.31602 4.94102C9.48555 4.76875 9.76445 4.76875 9.93398 4.94102C10.1062 5.11055 10.1062 5.38945 9.93398 5.55898L6.43398 9.05898ZM14 7C14 10.8664 10.8664 14 7 14C3.13359 14 0 10.8664 0 7C0 3.13359 3.13359 0 7 0C10.8664 0 14 3.13359 14 7ZM7 0.875C3.61758 0.875 0.875 3.61758 0.875 7C0.875 10.3824 3.61758 13.125 7 13.125C10.3824 13.125 13.125 10.3824 13.125 7C13.125 3.61758 10.3824 0.875 7 0.875Z" fill="#6981FF"/>
<path d="M6.43398 9.05898L4.31266 6.93766L4.30418 6.94615L4.29576 6.9547L6.43398 9.05898ZM5.81602 9.05898L7.95424 6.9547L7.94582 6.94615L7.93734 6.93766L5.81602 9.05898ZM4.06602 7.30898L6.18734 5.18766L6.17885 5.17918L6.1703 5.17076L4.06602 7.30898ZM4.06602 6.69102L6.1703 8.82924L6.1874 8.8124L6.20424 8.7953L4.06602 6.69102ZM4.68398 6.69102L2.54576 8.7953L2.55418 8.80385L2.56266 8.81234L4.68398 6.69102ZM6.125 8.13203L4.00368 10.2534L6.125 12.3747L8.24632 10.2534L6.125 8.13203ZM9.31602 4.94102L11.4373 7.06234L11.4458 7.05385L11.4542 7.0453L9.31602 4.94102ZM9.93398 4.94102L7.79576 7.0453L7.8126 7.0624L7.8297 7.07924L9.93398 4.94102ZM9.93398 5.55898L7.8297 3.42076L7.82115 3.42918L7.81266 3.43766L9.93398 5.55898ZM4.29576 6.9547C5.30156 5.93268 6.94844 5.93268 7.95424 6.9547L3.67779 11.1633C5.02266 12.5298 7.22734 12.5298 8.57221 11.1633L4.29576 6.9547ZM7.93734 6.93766L6.18734 5.18766L1.9447 9.4303L3.6947 11.1803L7.93734 6.93766ZM6.1703 5.17076C7.19232 6.17656 7.19232 7.82344 6.1703 8.82924L1.96173 4.55279C0.595178 5.89766 0.595178 8.10234 1.96173 9.44721L6.1703 5.17076ZM6.20424 8.7953C5.19844 9.81732 3.55156 9.81732 2.54576 8.7953L6.82221 4.58673C5.47734 3.22018 3.27266 3.22018 1.92779 4.58673L6.20424 8.7953ZM2.56266 8.81234L4.00368 10.2534L8.24632 6.01071L6.8053 4.5697L2.56266 8.81234ZM8.24632 10.2534L11.4373 7.06234L7.1947 2.8197L4.00368 6.01071L8.24632 10.2534ZM11.4542 7.0453C10.4484 8.06732 8.80156 8.06732 7.79576 7.0453L12.0722 2.83673C10.7273 1.47018 8.52266 1.47018 7.17779 2.83673L11.4542 7.0453ZM7.8297 7.07924C6.80768 6.07344 6.80768 4.42656 7.8297 3.42076L12.0383 7.69721C13.4048 6.35234 13.4048 4.14766 12.0383 2.80279L7.8297 7.07924ZM7.81266 3.43766L4.31266 6.93766L8.5553 11.1803L12.0553 7.6803L7.81266 3.43766ZM11 7C11 9.20955 9.20955 11 7 11V17C12.5233 17 17 12.5233 17 7H11ZM7 11C4.79045 11 3 9.20955 3 7H-3C-3 12.5233 1.47674 17 7 17V11ZM3 7C3 4.79045 4.79045 3 7 3V-3C1.47674 -3 -3 1.47674 -3 7H3ZM7 3C9.20955 3 11 4.79045 11 7H17C17 1.47674 12.5233 -3 7 -3V3ZM7 -2.125C1.96072 -2.125 -2.125 1.96072 -2.125 7H3.875C3.875 5.27443 5.27443 3.875 7 3.875V-2.125ZM-2.125 7C-2.125 12.0393 1.96072 16.125 7 16.125V10.125C5.27443 10.125 3.875 8.72557 3.875 7H-2.125ZM7 16.125C12.0393 16.125 16.125 12.0393 16.125 7H10.125C10.125 8.72557 8.72557 10.125 7 10.125V16.125ZM16.125 7C16.125 1.96072 12.0393 -2.125 7 -2.125V3.875C8.72557 3.875 10.125 5.27443 10.125 7H16.125Z" fill="#6981FF" mask="url(#path-2-inside-1_828_11161)"/>
</svg>
