<svg width="50" height="67" viewBox="0 0 50 67" fill="none" xmlns="http://www.w3.org/2000/svg">
<path d="M14.7402 8.63281C15.5735 3.73698 19.8574 0 25.0006 0C30.1438 0 34.4277 3.73698 35.261 8.63281C37.774 9.45312 39.5839 11.8099 39.5839 14.5833V17.7083C39.5839 19.4401 38.1907 20.8333 36.4589 20.8333H25.0006H13.5423C11.8105 20.8333 10.4173 19.4401 10.4173 17.7083V14.5833C10.4173 11.8099 12.2272 9.45312 14.7402 8.63281ZM28.1256 10.4167C28.1256 9.58786 27.7964 8.79301 27.2103 8.20696C26.6243 7.62091 25.8294 7.29167 25.0006 7.29167C24.1718 7.29167 23.377 7.62091 22.7909 8.20696C22.2049 8.79301 21.8756 9.58786 21.8756 10.4167C21.8756 11.2455 22.2049 12.0403 22.7909 12.6264C23.377 13.2124 24.1718 13.5417 25.0006 13.5417C25.8294 13.5417 26.6243 13.2124 27.2103 12.6264C27.7964 12.0403 28.1256 11.2455 28.1256 10.4167ZM24.3886 29.7786C25.1959 30.5859 25.1959 31.9141 24.3886 32.7214L16.0553 41.0547C15.248 41.862 13.9199 41.862 13.1126 41.0547L8.94592 36.888C8.13863 36.0807 8.13863 34.7526 8.94592 33.9453C9.75321 33.138 11.0813 33.138 11.8886 33.9453L14.5839 36.6406L21.4459 29.7786C22.2532 28.9713 23.5813 28.9713 24.3886 29.7786ZM9.37561 52.0833C9.37561 51.2545 9.70485 50.4597 10.2909 49.8736C10.877 49.2876 11.6718 48.9583 12.5006 48.9583C13.3294 48.9583 14.1243 49.2876 14.7103 49.8736C15.2964 50.4597 15.6256 51.2545 15.6256 52.0833C15.6256 52.9121 15.2964 53.707 14.7103 54.293C14.1243 54.8791 13.3294 55.2083 12.5006 55.2083C11.6718 55.2083 10.877 54.8791 10.2909 54.293C9.70485 53.707 9.37561 52.9121 9.37561 52.0833Z" fill="#6981FF"/>
<path d="M14.7402 8.63281C15.5735 3.73698 19.8574 0 25.0006 0C30.1438 0 34.4277 3.73698 35.261 8.63281C37.774 9.45312 39.5839 11.8099 39.5839 14.5833V17.7083C39.5839 19.4401 38.1907 20.8333 36.4589 20.8333H25.0006H13.5423C11.8105 20.8333 10.4173 19.4401 10.4173 17.7083V14.5833C10.4173 11.8099 12.2272 9.45312 14.7402 8.63281ZM28.1256 10.4167C28.1256 9.58786 27.7964 8.79301 27.2103 8.20696C26.6243 7.62091 25.8294 7.29167 25.0006 7.29167C24.1718 7.29167 23.377 7.62091 22.7909 8.20696C22.2049 8.79301 21.8756 9.58786 21.8756 10.4167C21.8756 11.2455 22.2049 12.0403 22.7909 12.6264C23.377 13.2124 24.1718 13.5417 25.0006 13.5417C25.8294 13.5417 26.6243 13.2124 27.2103 12.6264C27.7964 12.0403 28.1256 11.2455 28.1256 10.4167ZM24.3886 29.7786C25.1959 30.5859 25.1959 31.9141 24.3886 32.7214L16.0553 41.0547C15.248 41.862 13.9199 41.862 13.1126 41.0547L8.94592 36.888C8.13863 36.0807 8.13863 34.7526 8.94592 33.9453C9.75321 33.138 11.0813 33.138 11.8886 33.9453L14.5839 36.6406L21.4459 29.7786C22.2532 28.9713 23.5813 28.9713 24.3886 29.7786ZM9.37561 52.0833C9.37561 51.2545 9.70485 50.4597 10.2909 49.8736C10.877 49.2876 11.6718 48.9583 12.5006 48.9583C13.3294 48.9583 14.1243 49.2876 14.7103 49.8736C15.2964 50.4597 15.6256 51.2545 15.6256 52.0833C15.6256 52.9121 15.2964 53.707 14.7103 54.293C14.1243 54.8791 13.3294 55.2083 12.5006 55.2083C11.6718 55.2083 10.877 54.8791 10.2909 54.293C9.70485 53.707 9.37561 52.9121 9.37561 52.0833Z" fill="#6981FF"/>
<path opacity="0.4" d="M14.7396 8.63383C14.7526 8.52966 14.7786 8.4255 14.7917 8.33435H8.33333C3.73698 8.33435 0 12.0713 0 16.6677V58.3343C0 62.9307 3.73698 66.6677 8.33333 66.6677H41.6667C46.263 66.6677 50 62.9307 50 58.3343V16.6677C50 12.0713 46.263 8.33435 41.6667 8.33435H35.2083C35.2344 8.43852 35.2474 8.54268 35.2604 8.63383C37.7734 9.45414 39.5833 11.8109 39.5833 14.5844V17.7094C39.5833 19.4411 38.1901 20.8344 36.4583 20.8344H25H13.5417C11.8099 20.8344 10.4167 19.4411 10.4167 17.7094V14.5844C10.4167 11.8109 12.2266 9.45414 14.7396 8.63383ZM24.401 29.7666C25.2083 30.5739 25.2083 31.9021 24.401 32.7093L16.0677 41.0427C15.2604 41.85 13.9323 41.85 13.125 41.0427L8.95833 36.876C8.15104 36.0687 8.15104 34.7406 8.95833 33.9333C9.76562 33.126 11.0937 33.126 11.901 33.9333L14.5833 36.6416L21.4453 29.7797C22.2526 28.9724 23.5807 28.9724 24.388 29.7797L24.401 29.7666ZM25 39.5843C25 38.4385 25.9375 37.501 27.0833 37.501H39.5833C40.7292 37.501 41.6667 38.4385 41.6667 39.5843C41.6667 40.7302 40.7292 41.6677 39.5833 41.6677H27.0833C25.9375 41.6677 25 40.7302 25 39.5843ZM39.5833 50.001C40.7292 50.001 41.6667 50.9385 41.6667 52.0843C41.6667 53.2302 40.7292 54.1677 39.5833 54.1677H22.9167C21.7708 54.1677 20.8333 53.2302 20.8333 52.0843C20.8333 50.9385 21.7708 50.001 22.9167 50.001H39.5833ZM9.375 52.0843C9.375 51.2555 9.70424 50.4607 10.2903 49.8746C10.8763 49.2886 11.6712 48.9593 12.5 48.9593C13.3288 48.9593 14.1237 49.2886 14.7097 49.8746C15.2958 50.4607 15.625 51.2555 15.625 52.0843C15.625 52.9132 15.2958 53.708 14.7097 54.2941C14.1237 54.8801 13.3288 55.2093 12.5 55.2093C11.6712 55.2093 10.8763 54.8801 10.2903 54.2941C9.70424 53.708 9.375 52.9132 9.375 52.0843Z" fill="#6981FF"/>
</svg>
