<svg width="16" height="17" viewBox="0 0 16 17" fill="none" xmlns="http://www.w3.org/2000/svg">
<path d="M10 2.36077C9.525 2.36077 9.14286 1.97684 9.14286 1.50363C9.14286 1.03041 9.525 0.646484 10 0.646484H15.1429C15.6179 0.646484 16 1.03041 16 1.50363V6.64648C16 7.12148 15.6179 7.50363 15.1429 7.50363C14.6679 7.50363 14.2857 7.12148 14.2857 6.64648V3.57148L7.14643 10.6501C6.84286 11.0143 6.3 11.0143 5.96429 10.6501C5.63214 10.3465 5.63214 9.80363 5.96429 9.46791L13.075 2.36077H10ZM0 3.78934C0 2.6847 0.895357 1.78934 2 1.78934H6C6.475 1.78934 6.85714 2.17327 6.85714 2.64648C6.85714 3.12148 6.475 3.50363 6 3.50363H2C1.84214 3.50363 1.71429 3.6322 1.71429 3.78934V14.6465C1.71429 14.8036 1.84214 14.9322 2 14.9322H12.8571C13.0143 14.9322 13.1429 14.8036 13.1429 14.6465V10.6465C13.1429 10.1715 13.525 9.78934 14 9.78934C14.475 9.78934 14.8571 10.1715 14.8571 10.6465V14.6465C14.8571 15.7501 13.9607 16.6465 12.8571 16.6465H2C0.895357 16.6465 0 15.7501 0 14.6465V3.78934Z" fill="#6981FF"/>
</svg>
