<svg width="7" height="7" viewBox="0 0 7 7" fill="none" xmlns="http://www.w3.org/2000/svg">
<path d="M2.50614 4.91411L1.97138 4.37936C1.87435 4.28232 1.84587 4.13677 1.90072 4.01126C2.09373 3.57037 2.56204 2.53251 2.93542 1.98088C3.79925 0.707077 5.08603 0.664128 5.85388 0.805642C5.97728 0.828203 6.07221 0.923298 6.09436 1.04596C6.23569 1.81424 6.1935 3.10102 4.91938 3.96485C4.36353 4.34139 3.31301 4.79914 2.86053 4.98689C2.74451 5.03857 2.60106 5.01009 2.50614 4.91411ZM4.80019 2.52196C5.03329 2.52196 5.22209 2.33317 5.22209 2.10007C5.22209 1.86697 5.03329 1.67817 4.80019 1.67817C4.5671 1.67817 4.3783 1.86697 4.3783 2.10007C4.3783 2.33317 4.5671 2.52196 4.80019 2.52196Z" fill="#6981FF"/>
<path d="M2.84471 2.12116C2.54411 2.60528 2.20449 3.32883 1.99987 3.78765H0.993648C0.911695 3.78765 0.827358 3.73807 0.782521 3.65897C0.737684 3.57881 0.739308 3.47228 0.786782 3.40267L1.3434 2.48715C1.48104 2.26039 1.72711 2.12116 1.99249 2.12116H2.84471ZM3.10312 4.88246C3.57565 4.68206 4.29814 4.35193 4.76961 4.05555V4.90778C4.76961 5.17357 4.63988 5.41933 4.41311 5.5575L3.4976 6.11334C3.41849 6.16081 3.32146 6.16292 3.2413 6.11756C3.16219 6.07326 3.10312 5.98888 3.10312 5.89712V4.88246Z" fill="#C3CDFF"/>
</svg>
