<svg width="7" height="7" viewBox="0 0 7 7" fill="none" xmlns="http://www.w3.org/2000/svg">
<path d="M3.44609 5.49375L1.19609 5.00078C1.08141 4.96172 1 4.86016 1 4.75V2.00008C1 1.83742 1.15281 1.71813 1.31062 1.75758L1.5 1.80492V4.34867C1.5 4.45883 1.58141 4.56727 1.69578 4.59273L3.5 4.99375L5.30391 4.59281C5.41875 4.56719 5.5 4.46641 5.5 4.34922V1.80492L5.68937 1.75759C5.84687 1.71813 6 1.83742 6 2.00008V4.74305C6 4.8532 5.91859 4.96172 5.80422 4.98711L3.55422 5.48008C3.51875 5.50234 3.48125 5.50234 3.44609 5.49375Z" fill="#6981FF"/>
<path opacity="0.4" d="M1.5 1.75312V4.27734L3.375 4.75V1.81266L1.78828 1.50303C1.63672 1.4793 1.5 1.59797 1.5 1.75312ZM5.21172 1.50303L3.625 1.81266V4.75L5.5 4.28422V1.75312C5.5 1.59797 5.36328 1.4793 5.21172 1.50303Z" fill="#6981FF"/>
</svg>
