<svg width="7" height="7" viewBox="0 0 7 7" fill="none" xmlns="http://www.w3.org/2000/svg">
<g clip-path="url(#clip0_119_189)">
<path d="M3.3805 1.48135C3.47164 1.39544 3.62545 1.39544 3.72392 1.48135L5.80726 3.30412C5.91549 3.39934 5.92607 3.56373 5.83167 3.67196C5.73646 3.7802 5.57207 3.79078 5.46383 3.69638L3.55221 2.02336L1.64035 3.69638C1.53211 3.79078 1.36764 3.7802 1.2729 3.67196C1.17819 3.56373 1.18916 3.39934 1.29741 3.30412L3.3805 1.48135Z" fill="#6981FF"/>
<path opacity="0.4" d="M3.55208 2.02311L5.37581 3.61882L5.37907 5.257C5.37988 5.43685 5.23421 5.58333 5.05355 5.58333H4.39844C4.21859 5.58333 4.07292 5.43766 4.07292 5.25781V4.53923C4.07292 4.39518 3.95654 4.27881 3.8125 4.27881H3.29167C3.14762 4.27881 3.03125 4.39518 3.03125 4.53923V5.25781C3.03125 5.43766 2.88558 5.58333 2.70573 5.58333H2.0555C1.86833 5.58333 1.7299 5.43766 1.72982 5.25781L1.72933 3.618L3.55208 2.02311Z" fill="#6981FF"/>
</g>
<defs>
<clipPath id="clip0_119_189">
<rect width="4.6875" height="4.16667" fill="white" transform="translate(1.20833 1.41667)"/>
</clipPath>
</defs>
</svg>
