<svg width="20" height="16" viewBox="0 0 20 16" fill="none" xmlns="http://www.w3.org/2000/svg">
<path d="M8.33333 11.2222H3.88889C2.9684 11.2222 2.22222 11.9688 2.22222 12.8889C2.22222 13.1944 2.47083 13.4444 2.77778 13.4444H9.44444C9.75125 13.4444 10 13.1957 10 12.8889C10 11.9688 9.25347 11.2222 8.33333 11.2222ZM8.33333 7.88889C8.33333 6.66181 7.33854 5.66667 6.11111 5.66667C4.88368 5.66667 3.88889 6.66181 3.88889 7.88889C3.88889 9.11598 4.88368 10.1111 6.11111 10.1111C7.33854 10.1111 8.33333 9.11459 8.33333 7.88889ZM18.3333 0.111115H1.66667C0.746181 0.111115 0 0.857295 0 1.77778V3.44445H20V1.77778C20 0.857295 19.2535 0.111115 18.3333 0.111115Z" fill="#6981FF"/>
<path d="M0 3.44444V14C0 14.9201 0.746181 15.6667 1.66667 15.6667H18.3333C19.2538 15.6667 20 14.9205 20 14V3.44444H0ZM6.11111 5.66667C7.33854 5.66667 8.33333 6.6618 8.33333 7.88889C8.33333 9.11597 7.33854 10.1111 6.11111 10.1111C4.88368 10.1111 3.88889 9.11597 3.88889 7.88889C3.88889 6.6618 4.88542 5.66667 6.11111 5.66667ZM9.44444 13.4444H2.77778C2.47083 13.4444 2.22222 13.1944 2.22222 12.8889C2.22222 11.9687 2.9684 11.2222 3.88889 11.2222H8.33333C9.25382 11.2222 10 11.9684 10 12.8889C10 13.1944 9.75 13.4444 9.44444 13.4444ZM17.2222 11.2222H12.7778C12.471 11.2222 12.2222 10.9735 12.2222 10.6667C12.2222 10.3599 12.471 10.1111 12.7778 10.1111H17.2222C17.529 10.1111 17.7778 10.3599 17.7778 10.6667C17.7778 10.9735 17.5278 11.2222 17.2222 11.2222ZM17.2222 9H12.7778C12.4722 9 12.2222 8.75 12.2222 8.44444C12.2222 8.13889 12.4722 7.88889 12.7778 7.88889H17.2222C17.5278 7.88889 17.7778 8.13889 17.7778 8.44444C17.7778 8.75 17.5278 9 17.2222 9ZM17.2222 6.77778H12.7778C12.4722 6.77778 12.2222 6.52778 12.2222 6.22222C12.2222 5.91667 12.4722 5.66667 12.7778 5.66667H17.2222C17.5278 5.66667 17.7778 5.91667 17.7778 6.22222C17.7778 6.52778 17.5278 6.77778 17.2222 6.77778Z" fill="#C3CDFF"/>
</svg>
