<svg width="7" height="8" viewBox="0 0 7 8" fill="none" xmlns="http://www.w3.org/2000/svg">
<path d="M3.08333 5.11111H1.83889C1.58115 5.11111 1.37222 5.32014 1.37222 5.57778C1.37222 5.66333 1.44183 5.73333 1.52778 5.73333H3.39444C3.48035 5.73333 3.55 5.66368 3.55 5.57778C3.55 5.32014 3.34097 5.11111 3.08333 5.11111ZM3.08333 4.17778C3.08333 3.83419 2.80479 3.55556 2.46111 3.55556C2.11743 3.55556 1.83889 3.83419 1.83889 4.17778C1.83889 4.52136 2.11743 4.8 2.46111 4.8C2.80479 4.8 3.08333 4.52097 3.08333 4.17778ZM5.88333 2H1.21667C0.958931 2 0.75 2.20893 0.75 2.46667V2.93333H6.35V2.46667C6.35 2.20893 6.14097 2 5.88333 2Z" fill="#6981FF"/>
<path d="M0.75 2.93333V5.88889C0.75 6.14653 0.958931 6.35556 1.21667 6.35556H5.88333C6.14107 6.35556 6.35 6.14663 6.35 5.88889V2.93333H0.75ZM2.46111 3.55556C2.80479 3.55556 3.08333 3.8342 3.08333 4.17778C3.08333 4.52136 2.80479 4.8 2.46111 4.8C2.11743 4.8 1.83889 4.52136 1.83889 4.17778C1.83889 3.8342 2.11792 3.55556 2.46111 3.55556ZM3.39444 5.73333H1.52778C1.44183 5.73333 1.37222 5.66333 1.37222 5.57778C1.37222 5.32014 1.58115 5.11111 1.83889 5.11111H3.08333C3.34107 5.11111 3.55 5.32004 3.55 5.57778C3.55 5.66333 3.48 5.73333 3.39444 5.73333ZM5.57222 5.11111H4.32778C4.24187 5.11111 4.17222 5.04146 4.17222 4.95556C4.17222 4.86965 4.24187 4.8 4.32778 4.8H5.57222C5.65813 4.8 5.72778 4.86965 5.72778 4.95556C5.72778 5.04146 5.65778 5.11111 5.57222 5.11111ZM5.57222 4.48889H4.32778C4.24222 4.48889 4.17222 4.41889 4.17222 4.33333C4.17222 4.24778 4.24222 4.17778 4.32778 4.17778H5.57222C5.65778 4.17778 5.72778 4.24778 5.72778 4.33333C5.72778 4.41889 5.65778 4.48889 5.57222 4.48889ZM5.57222 3.86667H4.32778C4.24222 3.86667 4.17222 3.79667 4.17222 3.71111C4.17222 3.62556 4.24222 3.55556 4.32778 3.55556H5.57222C5.65778 3.55556 5.72778 3.62556 5.72778 3.71111C5.72778 3.79667 5.65778 3.86667 5.57222 3.86667Z" fill="#C3CDFF"/>
</svg>
