<svg width="18" height="18" viewBox="0 0 18 18" fill="none" xmlns="http://www.w3.org/2000/svg">
<g clip-path="url(#clip0_1_414)">
<path d="M9.125 4.76055V4.375H5.625C4.65977 4.375 3.875 5.15977 3.875 6.125C3.875 7.09023 4.65977 7.875 5.625 7.875H12.625C14.5582 7.875 16.125 9.4418 16.125 11.375C16.125 13.0758 14.9109 14.4949 13.3031 14.8094C13.0105 15.3672 12.4254 15.75 11.75 15.75C10.7848 15.75 10 14.9652 10 14C10 13.0348 10.7848 12.25 11.75 12.25C12.357 12.25 12.8902 12.559 13.2047 13.0266C13.8855 12.7887 14.375 12.1379 14.375 11.375C14.375 10.4098 13.5902 9.625 12.625 9.625H5.625C3.6918 9.625 2.125 8.0582 2.125 6.125C2.125 4.1918 3.6918 2.625 5.625 2.625H9.125V2.23945C9.125 1.96875 9.34375 1.75 9.61445 1.75C9.72383 1.75 9.82773 1.78555 9.91523 1.85391L11.5777 3.14727C11.6871 3.23203 11.75 3.36328 11.75 3.5C11.75 3.63672 11.6871 3.76797 11.5777 3.85273L9.91523 5.14609C9.83047 5.21172 9.72383 5.25 9.61445 5.25C9.34375 5.25 9.125 5.03125 9.125 4.76055Z" fill="#6981FF"/>
<path d="M14.375 1.75C14.8391 1.75 15.2842 1.93437 15.6124 2.26256C15.9406 2.59075 16.125 3.03587 16.125 3.5C16.125 3.96413 15.9406 4.40925 15.6124 4.73744C15.2842 5.06563 14.8391 5.25 14.375 5.25C13.9109 5.25 13.4658 5.06563 13.1376 4.73744C12.8094 4.40925 12.625 3.96413 12.625 3.5C12.625 3.03587 12.8094 2.59075 13.1376 2.26256C13.4658 1.93437 13.9109 1.75 14.375 1.75ZM3.875 12.25C4.52305 12.25 5.08906 12.6027 5.38984 13.125H6.5V12.7395C6.5 12.4687 6.71875 12.25 6.98945 12.25C7.09883 12.25 7.20273 12.2855 7.29023 12.3539L8.95273 13.6473C9.06211 13.732 9.125 13.8633 9.125 14C9.125 14.1367 9.06211 14.268 8.95273 14.3527L7.29023 15.6461C7.20547 15.7117 7.09883 15.75 6.98945 15.75C6.71875 15.75 6.5 15.5313 6.5 15.2605V14.875H5.38984C5.08633 15.3973 4.52305 15.75 3.875 15.75C2.90977 15.75 2.125 14.9652 2.125 14C2.125 13.0348 2.90977 12.25 3.875 12.25Z" fill="#C3CDFF"/>
</g>
<defs>
<clipPath id="clip0_1_414">
<rect width="14" height="14" fill="white" transform="translate(2.125 1.75)"/>
</clipPath>
</defs>
</svg>
