<svg width="20" height="20" viewBox="0 0 20 20" fill="none" xmlns="http://www.w3.org/2000/svg">
<path d="M17.8075 7.00683C17.5649 6.78585 17.1848 6.79928 16.9595 7.03791L14.7833 9.33981L13.8235 8.3972C13.5891 8.16701 13.2095 8.16701 12.975 8.3972C12.7405 8.62739 12.7406 9.00023 12.975 9.23055L14.375 10.6055C14.4875 10.7169 14.64 10.7783 14.8 10.7783H14.811C14.9742 10.7752 15.129 10.7073 15.24 10.5899L17.84 7.83988C18.065 7.60102 18.05 7.22781 17.8075 7.00683Z" fill="#6981FF"/>
<path opacity="0.4" d="M8.8675 11.1703H6.3325C3.94025 11.1703 2 13.0757 2 15.4255C2 15.8969 2.388 16.2775 2.8665 16.2775H12.3325C12.8125 16.2775 13.2 15.8969 13.2 15.4255C13.2 13.0757 11.26 11.1703 8.8675 11.1703ZM7.6 9.99177C9.3675 9.99177 10.8 8.5846 10.8 6.84891C10.8 5.11322 9.3675 3.70605 7.6 3.70605C5.8325 3.70605 4.4 5.11322 4.4 6.84891C4.4 8.5846 5.8325 9.99177 7.6 9.99177Z" fill="#6981FF"/>
</svg>
