<svg width="200" height="58" viewBox="0 0 200 58" fill="none" xmlns="http://www.w3.org/2000/svg">
<g clip-path="url(#clip0_1040_12400)">
<path opacity="0.99" d="M5.42232 1.65234H7.78294C8.29603 1.65234 8.78773 1.85904 9.1474 2.22543L18.4419 12.118C20.217 13.9262 20.0804 13.9262 18.5908 15.7787L7.47471 28.5673C6.57827 29.6437 5.85939 30.3002 4.70207 29.5127L4.34787 29.2718C3.82293 28.915 3.50879 28.3205 3.50879 27.6849V3.57054C3.50833 2.51106 4.36517 1.65234 5.42232 1.65234Z" fill="url(#paint0_linear_1040_12400)"/>
<path opacity="0.99" d="M39.2447 1.6958H34.0577C33.6397 1.6958 33.2423 1.87557 32.9655 2.18949L15.313 22.2279C14.8094 22.7996 14.8295 23.6633 15.3594 24.2109L20.5555 29.5794C21.2079 30.2538 22.3165 30.1439 22.8251 29.355L39.8875 2.87939C40.2167 2.36881 39.8506 1.6958 39.2442 1.6958H39.2447Z" fill="url(#paint1_linear_1040_12400)"/>
<path d="M40.512 6.54312V28.0726C40.512 28.7785 40.1282 29.4278 39.5108 29.7668C38.7387 30.1911 37.7776 30.0369 37.1762 29.3922L30.6944 22.8551C30.0866 22.2035 30.0028 21.2193 30.4918 20.4738L39.7767 6.32228C39.9953 5.98919 40.5125 6.14433 40.5125 6.54312H40.512Z" fill="url(#paint2_linear_1040_12400)"/>
</g>
<g clip-path="url(#clip1_1040_12400)">
<path d="M186.81 27.2314C180.104 27.2314 175.783 23.0757 175.783 16.6157C175.783 10.2792 180.186 6 186.728 6C189.732 6 192.365 7.0698 194.546 9.16826L191.378 12.5834C190.226 11.4313 188.621 10.773 186.934 10.773C183.56 10.773 181.215 13.1594 181.215 16.6157C181.215 20.072 183.519 22.4585 186.934 22.4585C188.744 22.4585 190.39 21.759 191.624 20.4835L194.834 23.9397C192.53 26.1616 189.937 27.2314 186.81 27.2314Z" fill="white"/>
<path d="M166.287 26.7789V6.45264H171.76V26.7789H166.287Z" fill="white"/>
<path d="M156.296 6.45261H161.028V26.7788H156.296L155.926 24.3101C154.239 26.2028 151.77 27.2314 148.89 27.2314C143.047 27.2314 139.015 22.8699 139.015 16.6157C139.015 10.3615 143.047 6 148.89 6C151.77 6 154.28 7.02865 155.926 8.88023L156.296 6.45261ZM150.001 22.4585C153.292 22.4585 155.597 20.0309 155.597 16.6157C155.597 13.2006 153.292 10.773 150.001 10.773C146.75 10.773 144.446 13.2006 144.446 16.6157C144.446 20.0309 146.75 22.4585 150.001 22.4585Z" fill="white"/>
<path d="M127.576 27.316C124.038 27.316 120.911 26.2873 118.318 24.4357L120.581 20.568C122.474 21.8847 125.231 22.6664 127.823 22.6664C130.004 22.6664 131.279 21.9669 131.279 20.7737C131.279 19.5393 130.168 18.9633 127.371 18.7164C122.145 18.3049 119.018 16.0007 119.018 12.3387C119.018 8.51213 122.556 5.91992 127.988 5.91992C131.156 5.91992 133.995 6.78399 136.135 8.22411L133.913 12.0096C132.226 10.9398 130.333 10.446 128.235 10.446C125.684 10.446 124.367 11.1043 124.367 12.3387C124.367 13.4497 125.396 14.0257 127.905 14.2726C133.789 14.8486 136.67 16.8648 136.67 20.7737C136.67 24.7237 133.172 27.316 127.576 27.316Z" fill="white"/>
<path d="M104.998 27.2314C98.2909 27.2314 94.0117 22.8288 94.0117 16.6157C94.0117 10.4026 98.2909 6 104.998 6C111.705 6 115.984 10.4026 115.984 16.6157C115.984 22.8288 111.705 27.2314 104.998 27.2314ZM104.998 22.4585C108.372 22.4585 110.552 19.8663 110.552 16.6157C110.552 13.3652 108.372 10.773 104.998 10.773C101.624 10.773 99.443 13.3652 99.443 16.6157C99.443 19.8663 101.624 22.4585 104.998 22.4585Z" fill="white"/>
<path d="M81.875 6.04102C87.0596 6.04102 90.2691 9.29168 90.2691 14.682V26.7794H84.7965V15.2992C84.7965 12.4189 83.4386 10.8141 81.0109 10.8141C78.3775 10.8141 76.6081 12.7069 76.6081 15.5873V26.7794H71.1766V15.2992C71.1766 12.4189 69.8188 10.8141 67.3911 10.8141C64.7576 10.8141 62.9883 12.7069 62.9883 15.5873V26.7794H57.5156V6.45249H62.2476L62.6179 8.83905C63.9758 7.0697 66.0332 6.04102 68.4197 6.04102C71.2178 6.04102 73.522 7.31659 74.7565 9.41512C76.3612 7.19315 78.7478 6.04102 81.875 6.04102Z" fill="white"/>
</g>
<path d="M2.67573 51.3086V40.6656H6.75001C7.51913 40.6656 8.15834 40.7868 8.66762 41.0294C9.18037 41.2684 9.5632 41.5958 9.81611 42.0115C10.0725 42.4273 10.2007 42.8985 10.2007 43.4251C10.2007 43.8581 10.1175 44.2288 9.95123 44.5372C9.78493 44.8421 9.56147 45.0898 9.28084 45.2803C9.00021 45.4709 8.68668 45.6077 8.34022 45.6909V45.7948C8.71786 45.8156 9.0799 45.9317 9.42635 46.143C9.77627 46.3509 10.0621 46.6453 10.2838 47.0264C10.5056 47.4075 10.6164 47.8683 10.6164 48.4088C10.6164 48.9596 10.483 49.4551 10.2163 49.8951C9.94949 50.3316 9.54761 50.6763 9.01061 50.9292C8.47361 51.1821 7.79803 51.3086 6.98386 51.3086H2.67573ZM4.60373 49.6976H6.67725C7.37709 49.6976 7.88117 49.5642 8.18952 49.2974C8.50132 49.0272 8.65723 48.6808 8.65723 48.2581C8.65723 47.9428 8.57928 47.6587 8.42337 47.4058C8.26747 47.1494 8.04574 46.9485 7.75818 46.803C7.47063 46.654 7.12764 46.5795 6.72922 46.5795H4.60373V49.6976ZM4.60373 45.192H6.51095C6.84355 45.192 7.14323 45.1313 7.41 45.0101C7.67677 44.8854 7.88637 44.7104 8.03881 44.4852C8.19471 44.2566 8.27266 43.9863 8.27266 43.6745C8.27266 43.2622 8.12715 42.9227 7.83613 42.6559C7.54858 42.3892 7.12071 42.2558 6.55253 42.2558H4.60373V45.192ZM12.3791 40.6656H14.5566L17.1602 45.3739H17.2641L19.8677 40.6656H22.0452L18.1736 47.3383V51.3086H16.2507V47.3383L12.3791 40.6656ZM28.1989 42.2818V40.6656H36.6904V42.2818H33.4009V51.3086H31.4884V42.2818H28.1989ZM39.1404 51.3086V40.6656H43.1315C43.9492 40.6656 44.6351 40.8076 45.1895 41.0917C45.7473 41.3758 46.1682 41.7742 46.4523 42.287C46.7398 42.7963 46.8836 43.3904 46.8836 44.0695C46.8836 44.752 46.7381 45.3444 46.4471 45.8468C46.1595 46.3457 45.7351 46.732 45.1739 47.0057C44.6126 47.2759 43.9232 47.411 43.1056 47.411H40.2629V45.8104H42.8457C43.3238 45.8104 43.7153 45.7446 44.0202 45.6129C44.3251 45.4778 44.5503 45.2821 44.6958 45.0257C44.8448 44.7658 44.9192 44.4471 44.9192 44.0695C44.9192 43.6918 44.8448 43.3696 44.6958 43.1029C44.5468 42.8326 44.3199 42.6282 44.015 42.4896C43.7101 42.3476 43.3169 42.2766 42.8353 42.2766H41.0684V51.3086H39.1404ZM44.6386 46.486L47.2734 51.3086H45.1219L42.5339 46.486H44.6386ZM50.8381 51.3086H48.7802L52.527 40.6656H54.9072L58.6592 51.3086H56.6013L53.7587 42.8482H53.6755L50.8381 51.3086ZM50.9056 47.1356H56.5182V48.6842H50.9056V47.1356ZM69.6203 40.6656V51.3086H67.9053L62.8904 44.0591H62.8021V51.3086H60.8741V40.6656H62.5994L67.6091 47.9203H67.7027V40.6656H69.6203ZM78.3181 43.5914C78.2696 43.1375 78.0652 42.7841 77.7049 42.5312C77.348 42.2783 76.8838 42.1519 76.3122 42.1519C75.9103 42.1519 75.5655 42.2125 75.278 42.3337C74.9904 42.455 74.7704 42.6196 74.618 42.8274C74.4656 43.0353 74.3876 43.2726 74.3841 43.5394C74.3841 43.7611 74.4344 43.9534 74.5348 44.1162C74.6388 44.2791 74.7791 44.4177 74.9558 44.532C75.1325 44.6429 75.3282 44.7364 75.543 44.8126C75.7578 44.8888 75.9744 44.9529 76.1926 45.0049L77.1904 45.2543C77.5923 45.3479 77.9786 45.4743 78.3493 45.6337C78.7235 45.7931 79.0578 45.994 79.3523 46.2365C79.6502 46.479 79.8858 46.7718 80.059 47.1148C80.2323 47.4578 80.3189 47.8597 80.3189 48.3204C80.3189 48.9441 80.1595 49.4932 79.8408 49.9678C79.522 50.439 79.0612 50.808 78.4584 51.0747C77.8591 51.338 77.1332 51.4697 76.281 51.4697C75.4529 51.4697 74.7341 51.3415 74.1243 51.0851C73.518 50.8288 73.0434 50.4546 72.7004 49.9626C72.3609 49.4707 72.1772 48.8713 72.1495 48.1645H74.0464C74.0741 48.5352 74.1884 48.8436 74.3893 49.0896C74.5903 49.3355 74.8519 49.5192 75.1741 49.6404C75.4997 49.7617 75.8635 49.8223 76.2654 49.8223C76.6846 49.8223 77.0518 49.76 77.3671 49.6352C77.6858 49.507 77.9353 49.3304 78.1154 49.1052C78.2956 48.8765 78.3874 48.6097 78.3909 48.3049C78.3874 48.0277 78.306 47.799 78.1466 47.6189C77.9872 47.4353 77.7638 47.2828 77.4762 47.1616C77.1921 47.0368 76.8595 46.926 76.4784 46.829L75.2676 46.5172C74.3911 46.292 73.6982 45.9507 73.1889 45.4934C72.6831 45.0326 72.4302 44.4211 72.4302 43.6589C72.4302 43.0318 72.5999 42.4827 72.9394 42.0115C73.2824 41.5404 73.7484 41.1749 74.3374 40.915C74.9263 40.6517 75.5933 40.5201 76.3381 40.5201C77.0934 40.5201 77.7551 40.6517 78.3233 40.915C78.895 41.1749 79.3436 41.5369 79.6693 42.0012C79.9949 42.4619 80.163 42.992 80.1734 43.5914H78.3181ZM82.8507 40.6656H85.2101L88.3697 48.3776H88.4944L91.6541 40.6656H94.0134V51.3086H92.1634V43.9967H92.0646L89.1232 51.2774H87.7409L84.7995 43.9811H84.7008V51.3086H82.8507V40.6656ZM98.8539 40.6656V51.3086H96.9259V40.6656H98.8539ZM101.287 42.2818V40.6656H109.779V42.2818H106.489V51.3086H104.577V42.2818H101.287ZM122.456 43.5914C122.407 43.1375 122.203 42.7841 121.842 42.5312C121.485 42.2783 121.021 42.1519 120.45 42.1519C120.048 42.1519 119.703 42.2125 119.415 42.3337C119.128 42.455 118.908 42.6196 118.755 42.8274C118.603 43.0353 118.525 43.2726 118.522 43.5394C118.522 43.7611 118.572 43.9534 118.672 44.1162C118.776 44.2791 118.917 44.4177 119.093 44.532C119.27 44.6429 119.466 44.7364 119.68 44.8126C119.895 44.8888 120.112 44.9529 120.33 45.0049L121.328 45.2543C121.73 45.3479 122.116 45.4743 122.487 45.6337C122.861 45.7931 123.195 45.994 123.49 46.2365C123.788 46.479 124.023 46.7718 124.196 47.1148C124.37 47.4578 124.456 47.8597 124.456 48.3204C124.456 48.9441 124.297 49.4932 123.978 49.9678C123.659 50.439 123.199 50.808 122.596 51.0747C121.997 51.338 121.271 51.4697 120.418 51.4697C119.59 51.4697 118.872 51.3415 118.262 51.0851C117.655 50.8288 117.181 50.4546 116.838 49.9626C116.498 49.4707 116.315 48.8713 116.287 48.1645H118.184C118.212 48.5352 118.326 48.8436 118.527 49.0896C118.728 49.3355 118.989 49.5192 119.312 49.6404C119.637 49.7617 120.001 49.8223 120.403 49.8223C120.822 49.8223 121.189 49.76 121.505 49.6352C121.823 49.507 122.073 49.3304 122.253 49.1052C122.433 48.8765 122.525 48.6097 122.528 48.3049C122.525 48.0277 122.443 47.799 122.284 47.6189C122.125 47.4353 121.901 47.2828 121.614 47.1616C121.33 47.0368 120.997 46.926 120.616 46.829L119.405 46.5172C118.529 46.292 117.836 45.9507 117.326 45.4934C116.821 45.0326 116.568 44.4211 116.568 43.6589C116.568 43.0318 116.737 42.4827 117.077 42.0115C117.42 41.5404 117.886 41.1749 118.475 40.915C119.064 40.6517 119.731 40.5201 120.476 40.5201C121.231 40.5201 121.893 40.6517 122.461 40.915C123.032 41.1749 123.481 41.5369 123.807 42.0012C124.132 42.4619 124.3 42.992 124.311 43.5914H122.456ZM126.988 51.3086V40.6656H133.91V42.2818H128.916V45.1712H133.552V46.7874H128.916V49.6924H133.952V51.3086H126.988ZM145.8 44.2566H143.857C143.801 43.9378 143.699 43.6555 143.55 43.4095C143.401 43.16 143.216 42.9487 142.994 42.7755C142.772 42.6022 142.519 42.4723 142.235 42.3857C141.955 42.2956 141.651 42.2506 141.326 42.2506C140.747 42.2506 140.234 42.3961 139.788 42.6871C139.341 42.9747 138.991 43.3974 138.738 43.9551C138.485 44.5095 138.358 45.1868 138.358 45.9871C138.358 46.8012 138.485 47.4872 138.738 48.045C138.994 48.5993 139.344 49.0185 139.788 49.3026C140.234 49.5833 140.746 49.7236 141.321 49.7236C141.639 49.7236 141.937 49.682 142.214 49.5989C142.495 49.5122 142.746 49.3858 142.968 49.2195C143.193 49.0532 143.382 48.8488 143.534 48.6063C143.69 48.3637 143.798 48.0866 143.857 47.7748L145.8 47.7852C145.727 48.291 145.57 48.7656 145.327 49.2091C145.088 49.6526 144.775 50.044 144.387 50.3836C143.999 50.7196 143.545 50.9829 143.025 51.1735C142.505 51.3606 141.929 51.4541 141.295 51.4541C140.359 51.4541 139.524 51.2376 138.79 50.8045C138.055 50.3714 137.477 49.7461 137.054 48.9285C136.631 48.1108 136.42 47.1304 136.42 45.9871C136.42 44.8403 136.633 43.8599 137.059 43.0457C137.485 42.2281 138.066 41.6027 138.8 41.1697C139.535 40.7366 140.366 40.5201 141.295 40.5201C141.887 40.5201 142.438 40.6032 142.947 40.7695C143.456 40.9358 143.91 41.1801 144.309 41.5023C144.707 41.821 145.035 42.2125 145.291 42.6767C145.551 43.1375 145.721 43.6641 145.8 44.2566ZM155.088 40.6656H157.016V47.6189C157.016 48.3811 156.836 49.0515 156.475 49.63C156.119 50.2086 155.616 50.6607 154.968 50.9864C154.321 51.3086 153.564 51.4697 152.697 51.4697C151.828 51.4697 151.069 51.3086 150.421 50.9864C149.773 50.6607 149.271 50.2086 148.914 49.63C148.557 49.0515 148.379 48.3811 148.379 47.6189V40.6656H150.307V47.4578C150.307 47.9012 150.404 48.2962 150.598 48.6426C150.795 48.9891 151.073 49.2611 151.429 49.4585C151.786 49.6526 152.209 49.7496 152.697 49.7496C153.186 49.7496 153.609 49.6526 153.965 49.4585C154.326 49.2611 154.603 48.9891 154.797 48.6426C154.991 48.2962 155.088 47.9012 155.088 47.4578V40.6656ZM159.925 51.3086V40.6656H163.916C164.733 40.6656 165.419 40.8076 165.974 41.0917C166.531 41.3758 166.952 41.7742 167.236 42.287C167.524 42.7963 167.668 43.3904 167.668 44.0695C167.668 44.752 167.522 45.3444 167.231 45.8468C166.944 46.3457 166.519 46.732 165.958 47.0057C165.397 47.2759 164.707 47.411 163.89 47.411H161.047V45.8104H163.63C164.108 45.8104 164.499 45.7446 164.804 45.6129C165.109 45.4778 165.334 45.2821 165.48 45.0257C165.629 44.7658 165.703 44.4471 165.703 44.0695C165.703 43.6918 165.629 43.3696 165.48 43.1029C165.331 42.8326 165.104 42.6282 164.799 42.4896C164.494 42.3476 164.101 42.2766 163.619 42.2766H161.853V51.3086H159.925ZM165.423 46.486L168.057 51.3086H165.906L163.318 46.486H165.423ZM172.183 40.6656V51.3086H170.255V40.6656H172.183ZM174.617 42.2818V40.6656H183.108V42.2818H179.819V51.3086H177.906V42.2818H174.617ZM184.831 40.6656H187.008L189.612 45.3739H189.716L192.319 40.6656H194.497L190.625 47.3383V51.3086H188.702V47.3383L184.831 40.6656Z" fill="white"/>
<defs>
<linearGradient id="paint0_linear_1040_12400" x1="17.8268" y1="21.1583" x2="-5.97818" y2="2.61562" gradientUnits="userSpaceOnUse">
<stop stop-color="white"/>
<stop offset="1" stop-color="white" stop-opacity="0.68"/>
</linearGradient>
<linearGradient id="paint1_linear_1040_12400" x1="14.936" y1="23.3918" x2="63.7545" y2="11.1686" gradientUnits="userSpaceOnUse">
<stop stop-color="white"/>
<stop offset="1" stop-color="white" stop-opacity="0.68"/>
</linearGradient>
<linearGradient id="paint2_linear_1040_12400" x1="35.3436" y1="-1.55069" x2="39.1947" y2="31.8865" gradientUnits="userSpaceOnUse">
<stop stop-color="#FF2D4E"/>
<stop offset="1" stop-color="#D80E2A"/>
</linearGradient>
<clipPath id="clip0_1040_12400">
<rect width="37.3984" height="28.4228" fill="white" transform="translate(3.25195 1.62598)"/>
</clipPath>
<clipPath id="clip1_1040_12400">
<rect width="139.837" height="24.058" fill="white" transform="translate(56.9102 3.80859)"/>
</clipPath>
</defs>
</svg>
