<svg width="144" height="44" viewBox="0 0 144 44" fill="none" xmlns="http://www.w3.org/2000/svg">
<g clip-path="url(#clip0_1091_6540)">
<path opacity="0.99" d="M3.9046 2.11621H5.60424C5.97367 2.11621 6.3277 2.26503 6.58666 2.52883L13.2787 9.65149C14.5568 10.9534 14.4584 10.9534 13.3859 12.2872L5.38232 21.495C4.73688 22.27 4.21929 22.7427 3.38602 22.1757L3.13099 22.0022C2.75304 21.7453 2.52686 21.3172 2.52686 20.8596V3.49731C2.52653 2.73449 3.14345 2.11621 3.9046 2.11621Z" fill="url(#paint0_linear_1091_6540)"/>
<path opacity="0.99" d="M28.2566 2.14795H24.522C24.2211 2.14795 23.9349 2.27739 23.7356 2.50341L11.0258 16.931C10.6632 17.3427 10.6777 17.9646 11.0592 18.3588L14.8004 22.2242C15.2701 22.7097 16.0683 22.6305 16.4345 22.0625L28.7195 3.00013C28.9564 2.63252 28.6929 2.14795 28.2563 2.14795H28.2566Z" fill="url(#paint1_linear_1091_6540)"/>
<path d="M29.1689 5.63745V21.1387C29.1689 21.6469 28.8925 22.1144 28.448 22.3585C27.8921 22.664 27.2001 22.553 26.7671 22.0888L22.1002 17.3821C21.6626 16.9129 21.6022 16.2043 21.9543 15.6675L28.6395 5.47845C28.7968 5.23863 29.1692 5.35032 29.1692 5.63745H29.1689Z" fill="url(#paint2_linear_1091_6540)"/>
</g>
<g clip-path="url(#clip1_1091_6540)">
<path d="M134.503 20.5332C129.674 20.5332 126.563 17.5411 126.563 12.8899C126.563 8.32761 129.733 5.24658 134.444 5.24658C136.606 5.24658 138.502 6.01684 140.073 7.52773L137.791 9.98662C136.962 9.15712 135.807 8.68311 134.592 8.68311C132.163 8.68311 130.474 10.4014 130.474 12.8899C130.474 15.3784 132.133 17.0967 134.592 17.0967C135.895 17.0967 137.08 16.5931 137.969 15.6747L140.28 18.1632C138.621 19.763 136.755 20.5332 134.503 20.5332Z" fill="black"/>
<path d="M119.727 20.2076V5.57275H123.667V20.2076H119.727Z" fill="black"/>
<path d="M112.533 5.57246H115.94V20.2073H112.533L112.267 18.4298C111.052 19.7926 109.275 20.5332 107.201 20.5332C102.994 20.5332 100.091 17.3929 100.091 12.8899C100.091 8.38686 102.994 5.24658 107.201 5.24658C109.275 5.24658 111.082 5.98721 112.267 7.32035L112.533 5.57246ZM108.001 17.0967C110.371 17.0967 112.03 15.3488 112.03 12.8899C112.03 10.431 110.371 8.68311 108.001 8.68311C105.66 8.68311 104.001 10.431 104.001 12.8899C104.001 15.3488 105.66 17.0967 108.001 17.0967Z" fill="black"/>
<path d="M91.8546 20.5941C89.3069 20.5941 87.0554 19.8535 85.189 18.5203L86.8184 15.7356C88.1811 16.6836 90.166 17.2465 92.0324 17.2465C93.6025 17.2465 94.5209 16.7428 94.5209 15.8837C94.5209 14.9949 93.721 14.5802 91.7065 14.4024C87.9441 14.1062 85.6926 12.4472 85.6926 9.81051C85.6926 7.05536 88.2404 5.18896 92.1509 5.18896C94.432 5.18896 96.4762 5.8111 98.0167 6.84798L96.4169 9.57351C95.2023 8.80325 93.8395 8.44774 92.3287 8.44774C90.4919 8.44774 89.5439 8.92175 89.5439 9.81051C89.5439 10.6104 90.2845 11.0251 92.0917 11.2029C96.3281 11.6176 98.4018 13.0693 98.4018 15.8837C98.4018 18.7277 95.8837 20.5941 91.8546 20.5941Z" fill="black"/>
<path d="M75.5984 20.5332C70.7695 20.5332 67.6885 17.3633 67.6885 12.8899C67.6885 8.41648 70.7695 5.24658 75.5984 5.24658C80.4273 5.24658 83.5084 8.41648 83.5084 12.8899C83.5084 17.3633 80.4273 20.5332 75.5984 20.5332ZM75.5984 17.0967C78.0277 17.0967 79.5978 15.2303 79.5978 12.8899C79.5978 10.5495 78.0277 8.68311 75.5984 8.68311C73.1692 8.68311 71.599 10.5495 71.599 12.8899C71.599 15.2303 73.1692 17.0967 75.5984 17.0967Z" fill="black"/>
<path d="M58.9499 5.27637C62.6828 5.27637 64.9937 7.61684 64.9937 11.4979V20.208H61.0534V11.9423C61.0534 9.86844 60.0757 8.71302 58.3277 8.71302C56.4317 8.71302 55.1577 10.0758 55.1577 12.1497V20.208H51.2471V11.9423C51.2471 9.86844 50.2694 8.71302 48.5214 8.71302C46.6254 8.71302 45.3514 10.0758 45.3514 12.1497V20.208H41.4111V5.57263H44.8182L45.0848 7.29095C46.0625 6.01702 47.5438 5.27637 49.2621 5.27637C51.2767 5.27637 52.9358 6.19478 53.8245 7.70572C54.98 6.1059 56.6983 5.27637 58.9499 5.27637Z" fill="black"/>
</g>
<path d="M1.92672 37.769V30.1061H4.8602C5.41397 30.1061 5.8742 30.1934 6.24088 30.368C6.61006 30.5401 6.8857 30.7758 7.06779 31.0752C7.25238 31.3745 7.34468 31.7137 7.34468 32.0929C7.34468 32.4047 7.28481 32.6716 7.16508 32.8936C7.04534 33.1131 6.88445 33.2915 6.6824 33.4287C6.48035 33.5659 6.2546 33.6644 6.00516 33.7243V33.7991C6.27705 33.8141 6.53772 33.8976 6.78717 34.0498C7.03911 34.1995 7.2449 34.4115 7.40455 34.6859C7.56419 34.9603 7.64401 35.292 7.64401 35.6812C7.64401 36.0778 7.54798 36.4345 7.3559 36.7513C7.16383 37.0656 6.87447 37.3138 6.48783 37.4959C6.10119 37.678 5.61477 37.769 5.02858 37.769H1.92672ZM3.31488 36.6091H4.80782C5.3117 36.6091 5.67464 36.5131 5.89665 36.321C6.12115 36.1264 6.2334 35.877 6.2334 35.5727C6.2334 35.3457 6.17727 35.1411 6.06502 34.959C5.95277 34.7744 5.79313 34.6298 5.58609 34.525C5.37905 34.4177 5.1321 34.3641 4.84523 34.3641H3.31488V36.6091ZM3.31488 33.3651H4.68808C4.92755 33.3651 5.14332 33.3214 5.33539 33.2341C5.52747 33.1443 5.67838 33.0184 5.78814 32.8562C5.90039 32.6916 5.95651 32.497 5.95651 32.2725C5.95651 31.9757 5.85175 31.7312 5.64221 31.5391C5.43517 31.3471 5.12711 31.251 4.71802 31.251H3.31488V33.3651ZM8.91317 30.1061H10.4809L12.3555 33.496H12.4304L14.3049 30.1061H15.8727L13.0852 34.9104V37.769H11.7007V34.9104L8.91317 30.1061ZM20.3034 31.2697V30.1061H26.4173V31.2697H24.0488V37.769H22.6719V31.2697H20.3034ZM28.1813 37.769V30.1061H31.0549C31.6436 30.1061 32.1375 30.2083 32.5366 30.4129C32.9382 30.6174 33.2413 30.9043 33.4458 31.2735C33.6529 31.6402 33.7564 32.068 33.7564 32.5569C33.7564 33.0483 33.6516 33.4748 33.4421 33.8365C33.2351 34.1957 32.9295 34.4739 32.5254 34.6709C32.1213 34.8655 31.6249 34.9628 31.0362 34.9628H28.9895V33.8103H30.8491C31.1933 33.8103 31.4752 33.7629 31.6947 33.6682C31.9142 33.5709 32.0764 33.4299 32.1812 33.2453C32.2884 33.0583 32.342 32.8288 32.342 32.5569C32.342 32.285 32.2884 32.053 32.1812 31.8609C32.0739 31.6664 31.9105 31.5192 31.691 31.4194C31.4715 31.3171 31.1884 31.266 30.8416 31.266H29.5695V37.769H28.1813ZM32.14 34.2968L34.037 37.769H32.488L30.6246 34.2968H32.14ZM36.6036 37.769H35.1219L37.8197 30.1061H39.5334L42.2349 37.769H40.7531L38.7064 31.6776H38.6466L36.6036 37.769ZM36.6523 34.7645H40.6933V35.8795H36.6523V34.7645ZM50.1268 30.1061V37.769H48.892L45.2813 32.5494H45.2177V37.769H43.8295V30.1061H45.0718L48.6788 35.3295H48.7461V30.1061H50.1268ZM56.3892 32.2126C56.3543 31.8859 56.2071 31.6314 55.9477 31.4493C55.6908 31.2672 55.3565 31.1762 54.9449 31.1762C54.6556 31.1762 54.4074 31.2198 54.2003 31.3072C53.9933 31.3945 53.8349 31.5129 53.7252 31.6626C53.6154 31.8123 53.5593 31.9832 53.5568 32.1752C53.5568 32.3349 53.5929 32.4733 53.6653 32.5906C53.7401 32.7078 53.8411 32.8076 53.9684 32.8899C54.0956 32.9697 54.2365 33.0371 54.3912 33.0919C54.5458 33.1468 54.7017 33.193 54.8589 33.2304L55.5773 33.41C55.8666 33.4773 56.1448 33.5684 56.4117 33.6831C56.6811 33.7979 56.9218 33.9425 57.1338 34.1172C57.3483 34.2918 57.518 34.5026 57.6427 34.7495C57.7674 34.9965 57.8298 35.2858 57.8298 35.6176C57.8298 36.0666 57.715 36.4619 57.4855 36.8037C57.2561 37.1429 56.9243 37.4086 56.4903 37.6007C56.0587 37.7902 55.5361 37.885 54.9225 37.885C54.3263 37.885 53.8087 37.7927 53.3697 37.6082C52.9332 37.4236 52.5914 37.1542 52.3445 36.7999C52.1 36.4457 51.9678 36.0142 51.9478 35.5053H53.3136C53.3335 35.7722 53.4158 35.9942 53.5605 36.1713C53.7052 36.3484 53.8935 36.4807 54.1255 36.568C54.36 36.6553 54.6219 36.6989 54.9113 36.6989C55.2131 36.6989 55.4775 36.654 55.7045 36.5642C55.934 36.4719 56.1136 36.3447 56.2433 36.1826C56.373 36.0179 56.4391 35.8259 56.4416 35.6063C56.4391 35.4068 56.3805 35.2422 56.2658 35.1124C56.151 34.9802 55.9901 34.8705 55.7831 34.7832C55.5785 34.6934 55.3391 34.6136 55.0647 34.5437L54.1929 34.3192C53.5618 34.1571 53.0629 33.9114 52.6962 33.5821C52.332 33.2503 52.1499 32.8101 52.1499 32.2613C52.1499 31.8098 52.2721 31.4144 52.5166 31.0752C52.7635 30.7359 53.099 30.4728 53.5231 30.2857C53.9472 30.0961 54.4273 30.0013 54.9636 30.0013C55.5074 30.0013 55.9839 30.0961 56.393 30.2857C56.8046 30.4728 57.1276 30.7334 57.3621 31.0677C57.5965 31.3994 57.7175 31.7811 57.725 32.2126H56.3892ZM59.6527 30.1061H61.3514L63.6264 35.6587H63.7162L65.9911 30.1061H67.6898V37.769H66.3578V32.5045H66.2867L64.1689 37.7466H63.1736L61.0558 32.4933H60.9847V37.769H59.6527V30.1061ZM71.175 30.1061V37.769H69.7869V30.1061H71.175ZM72.9269 31.2697V30.1061H79.0408V31.2697H76.6723V37.769H75.2953V31.2697H72.9269ZM88.1682 32.2126C88.1333 31.8859 87.9861 31.6314 87.7267 31.4493C87.4697 31.2672 87.1355 31.1762 86.7239 31.1762C86.4345 31.1762 86.1863 31.2198 85.9793 31.3072C85.7723 31.3945 85.6139 31.5129 85.5041 31.6626C85.3944 31.8123 85.3382 31.9832 85.3357 32.1752C85.3357 32.3349 85.3719 32.4733 85.4442 32.5906C85.5191 32.7078 85.6201 32.8076 85.7473 32.8899C85.8745 32.9697 86.0155 33.0371 86.1701 33.0919C86.3248 33.1468 86.4807 33.193 86.6378 33.2304L87.3562 33.41C87.6456 33.4773 87.9237 33.5684 88.1906 33.6831C88.46 33.7979 88.7008 33.9425 88.9128 34.1172C89.1273 34.2918 89.2969 34.5026 89.4217 34.7495C89.5464 34.9965 89.6087 35.2858 89.6087 35.6176C89.6087 36.0666 89.494 36.4619 89.2645 36.8037C89.035 37.1429 88.7033 37.4086 88.2692 37.6007C87.8377 37.7902 87.3151 37.885 86.7015 37.885C86.1053 37.885 85.5877 37.7927 85.1487 37.6082C84.7121 37.4236 84.3704 37.1542 84.1234 36.7999C83.879 36.4457 83.7468 36.0142 83.7268 35.5053H85.0925C85.1125 35.7722 85.1948 35.9942 85.3395 36.1713C85.4842 36.3484 85.6725 36.4807 85.9045 36.568C86.139 36.6553 86.4009 36.6989 86.6902 36.6989C86.9921 36.6989 87.2565 36.654 87.4835 36.5642C87.713 36.4719 87.8926 36.3447 88.0223 36.1826C88.152 36.0179 88.2181 35.8259 88.2206 35.6063C88.2181 35.4068 88.1595 35.2422 88.0447 35.1124C87.93 34.9802 87.7691 34.8705 87.562 34.7832C87.3575 34.6934 87.118 34.6136 86.8436 34.5437L85.9718 34.3192C85.3407 34.1571 84.8418 33.9114 84.4752 33.5821C84.111 33.2503 83.9289 32.8101 83.9289 32.2613C83.9289 31.8098 84.0511 31.4144 84.2956 31.0752C84.5425 30.7359 84.878 30.4728 85.3021 30.2857C85.7261 30.0961 86.2063 30.0013 86.7426 30.0013C87.2864 30.0013 87.7628 30.0961 88.1719 30.2857C88.5835 30.4728 88.9066 30.7334 89.141 31.0677C89.3755 31.3994 89.4965 31.7811 89.504 32.2126H88.1682ZM91.4317 37.769V30.1061H96.4156V31.2697H92.8198V33.3501H96.1574V34.5138H92.8198V36.6054H96.4455V37.769H91.4317ZM104.976 32.6916H103.577C103.537 32.4621 103.463 32.2588 103.356 32.0817C103.249 31.9021 103.115 31.7499 102.956 31.6252C102.796 31.5005 102.614 31.4069 102.41 31.3446C102.208 31.2797 101.989 31.2473 101.755 31.2473C101.338 31.2473 100.969 31.3521 100.647 31.5616C100.325 31.7686 100.074 32.073 99.8914 32.4746C99.7093 32.8737 99.6183 33.3613 99.6183 33.9376C99.6183 34.5238 99.7093 35.0177 99.8914 35.4193C100.076 35.8184 100.328 36.1202 100.647 36.3248C100.969 36.5268 101.337 36.6278 101.751 36.6278C101.981 36.6278 102.195 36.5979 102.395 36.538C102.597 36.4757 102.778 36.3846 102.937 36.2649C103.099 36.1452 103.235 35.998 103.345 35.8234C103.457 35.6488 103.535 35.4492 103.577 35.2247L104.976 35.2322C104.924 35.5964 104.81 35.9381 104.636 36.2574C104.464 36.5767 104.238 36.8586 103.959 37.103C103.679 37.345 103.352 37.5346 102.978 37.6718C102.604 37.8065 102.189 37.8738 101.732 37.8738C101.059 37.8738 100.458 37.7179 99.9288 37.4061C99.4 37.0943 98.9834 36.644 98.6791 36.0554C98.3748 35.4667 98.2226 34.7607 98.2226 33.9376C98.2226 33.1119 98.376 32.406 98.6828 31.8198C98.9897 31.2311 99.4075 30.7808 99.9363 30.469C100.465 30.1572 101.064 30.0013 101.732 30.0013C102.159 30.0013 102.555 30.0612 102.922 30.1809C103.289 30.3006 103.616 30.4765 103.903 30.7085C104.189 30.938 104.425 31.2198 104.61 31.5541C104.797 31.8859 104.919 32.265 104.976 32.6916ZM111.663 30.1061H113.052V35.1124C113.052 35.6612 112.922 36.1439 112.663 36.5605C112.406 36.9771 112.044 37.3026 111.577 37.5371C111.111 37.769 110.566 37.885 109.942 37.885C109.316 37.885 108.77 37.769 108.303 37.5371C107.837 37.3026 107.475 36.9771 107.218 36.5605C106.961 36.1439 106.833 35.6612 106.833 35.1124V30.1061H108.221V34.9965C108.221 35.3157 108.291 35.6001 108.431 35.8496C108.573 36.099 108.772 36.2948 109.029 36.437C109.286 36.5767 109.591 36.6465 109.942 36.6465C110.294 36.6465 110.598 36.5767 110.855 36.437C111.115 36.2948 111.314 36.099 111.454 35.8496C111.594 35.6001 111.663 35.3157 111.663 34.9965V30.1061ZM115.146 37.769V30.1061H118.019C118.608 30.1061 119.102 30.2083 119.501 30.4129C119.903 30.6174 120.206 30.9043 120.41 31.2735C120.617 31.6402 120.721 32.068 120.721 32.5569C120.721 33.0483 120.616 33.4748 120.407 33.8365C120.2 34.1957 119.894 34.4739 119.49 34.6709C119.086 34.8655 118.589 34.9628 118.001 34.9628H115.954V33.8103H117.814C118.158 33.8103 118.44 33.7629 118.659 33.6682C118.879 33.5709 119.041 33.4299 119.146 33.2453C119.253 33.0583 119.307 32.8288 119.307 32.5569C119.307 32.285 119.253 32.053 119.146 31.8609C119.038 31.6664 118.875 31.5192 118.656 31.4194C118.436 31.3171 118.153 31.266 117.806 31.266H116.534V37.769H115.146ZM119.105 34.2968L121.002 37.769H119.453L117.589 34.2968H119.105ZM123.972 30.1061V37.769H122.584V30.1061H123.972ZM125.724 31.2697V30.1061H131.838V31.2697H129.47V37.769H128.093V31.2697H125.724ZM133.078 30.1061H134.646L136.521 33.496H136.595L138.47 30.1061H140.038L137.25 34.9104V37.769H135.866V34.9104L133.078 30.1061Z" fill="#666666"/>
<defs>
<linearGradient id="paint0_linear_1091_6540" x1="12.8358" y1="16.1605" x2="-4.30376" y2="2.80977" gradientUnits="userSpaceOnUse">
<stop/>
<stop offset="1" stop-color="#959292"/>
</linearGradient>
<linearGradient id="paint1_linear_1091_6540" x1="10.7544" y1="17.7691" x2="45.9037" y2="8.96834" gradientUnits="userSpaceOnUse">
<stop/>
<stop offset="1" stop-color="#AAA5A5"/>
</linearGradient>
<linearGradient id="paint2_linear_1091_6540" x1="25.4476" y1="-0.190093" x2="28.2204" y2="23.8847" gradientUnits="userSpaceOnUse">
<stop stop-color="#FF2D4E"/>
<stop offset="1" stop-color="#D80E2A"/>
</linearGradient>
<clipPath id="clip0_1091_6540">
<rect width="26.9268" height="20.4644" fill="white" transform="translate(2.34131 2.09766)"/>
</clipPath>
<clipPath id="clip1_1091_6540">
<rect width="100.683" height="17.3218" fill="white" transform="translate(40.9756 3.66895)"/>
</clipPath>
</defs>
</svg>
