<svg width="20" height="20" viewBox="0 0 20 20" fill="none" xmlns="http://www.w3.org/2000/svg">
<g clip-path="url(#clip0_15564_416)">
<g clip-path="url(#clip1_15564_416)">
<path opacity="0.4" d="M10.0219 2C10.1656 2 10.3094 2.03125 10.4375 2.09063L16.325 4.5875C17.0125 4.87813 17.525 5.55625 17.5219 6.375C17.5062 9.475 16.2312 15.1469 10.8469 17.725C10.5875 17.85 10.3031 17.9125 10.0219 17.9125C10.0219 12.6094 10.0219 7.30625 10.0219 2.00313V2Z" fill="#6981FF"/>
<path d="M10.0219 2C10.0156 2 10.0063 2 10 2C9.85626 2 9.71251 2.03125 9.58126 2.09063L3.69689 4.5875C3.00939 4.87813 2.49689 5.55625 2.50001 6.375C2.51564 9.475 3.79064 15.1469 9.17501 17.725C9.43439 17.85 9.71876 17.9125 10 17.9125V2H10.0219Z" fill="#6981FF"/>
</g>
</g>
<defs>
<clipPath id="clip0_15564_416">
<rect width="16.0002" height="16.0002" fill="white" transform="translate(1.99976 2)"/>
</clipPath>
<clipPath id="clip1_15564_416">
<rect width="16" height="16" fill="white" transform="translate(2 2)"/>
</clipPath>
</defs>
</svg>
