<svg width="32" height="32" viewBox="0 0 32 32" fill="none" xmlns="http://www.w3.org/2000/svg">
<path d="M14.5312 0.32341C15.4625 -0.107152 16.5375 -0.107152 17.4688 0.32341L31.1313 6.63797C31.6625 6.88172 32 7.41297 32 7.94422C32 8.58172 31.6625 9.11297 31.1313 9.36297L17.4688 15.6755C16.5375 16.1067 15.4625 16.1067 14.5312 15.6755L0.870625 9.36297C0.339875 9.11297 0 8.58172 0 7.94422C0 7.41297 0.339813 6.88172 0.870625 6.63797L14.5312 0.32341ZM31.1313 22.638C31.6625 22.8817 32 23.413 32 23.9442C32 24.5817 31.6625 25.113 31.1313 25.363L17.4688 31.6755C16.5375 32.1067 15.4625 32.1067 14.5312 31.6755L0.870625 25.363C0.339875 25.113 0 24.5817 0 23.9442C0 23.413 0.339813 22.8817 0.870625 22.638L4.19562 21.1005L13.6938 25.488C15.1563 26.1692 16.8437 26.1692 18.3062 25.488L27.8062 21.1005L31.1313 22.638Z" fill="#6981FF"/>
<path opacity="0.4" d="M18.3062 17.4875L27.8062 13.1L31.1313 14.6375C31.6625 14.8812 32 15.4125 32 15.9437C32 16.5812 31.6625 17.1125 31.1313 17.3625L17.4688 23.675C16.5375 24.1062 15.4625 24.1062 14.5312 23.675L0.870625 17.3625C0.339875 17.1125 0 16.5812 0 15.9437C0 15.4125 0.339813 14.8812 0.870625 14.6375L4.19562 13.1L13.6938 17.4875C15.1563 18.1687 16.8437 18.1687 18.3062 17.4875Z" fill="#6981FF"/>
</svg>
