<svg width="7" height="7" viewBox="0 0 7 7" fill="none" xmlns="http://www.w3.org/2000/svg">
<path d="M3.27051 1.05052C3.41602 0.983242 3.58398 0.983242 3.72949 1.05052L5.86426 2.03717C5.94727 2.07525 6 2.15826 6 2.24127C6 2.34088 5.94727 2.42389 5.86426 2.46295L3.72949 3.44928C3.58398 3.51666 3.41602 3.51666 3.27051 3.44928L1.13604 2.46295C1.05311 2.42389 1 2.34088 1 2.24127C1 2.15826 1.0531 2.07525 1.13604 2.03717L3.27051 1.05052ZM5.86426 4.53717C5.94727 4.57525 6 4.65826 6 4.74127C6 4.84088 5.94727 4.92389 5.86426 4.96295L3.72949 5.94928C3.58398 6.01666 3.41602 6.01666 3.27051 5.94928L1.13604 4.96295C1.05311 4.92389 1 4.84088 1 4.74127C1 4.65826 1.0531 4.57525 1.13604 4.53717L1.65557 4.29693L3.13965 4.98248C3.36816 5.08893 3.63184 5.08893 3.86035 4.98248L5.34473 4.29693L5.86426 4.53717Z" fill="#6981FF"/>
<path opacity="0.4" d="M3.86035 3.73242L5.34473 3.04688L5.86426 3.28711C5.94727 3.3252 6 3.4082 6 3.49121C6 3.59082 5.94727 3.67383 5.86426 3.71289L3.72949 4.69922C3.58398 4.7666 3.41602 4.7666 3.27051 4.69922L1.13604 3.71289C1.05311 3.67383 1 3.59082 1 3.49121C1 3.4082 1.0531 3.3252 1.13604 3.28711L1.65557 3.04688L3.13965 3.73242C3.36816 3.83887 3.63184 3.83887 3.86035 3.73242Z" fill="#6981FF"/>
</svg>
