<svg width="20" height="20" viewBox="0 0 20 20" fill="none" xmlns="http://www.w3.org/2000/svg">
<path opacity="0.4" d="M3 14.9998C3 15.2561 3.09687 15.5123 3.29375 15.7061L5.29375 17.7061C5.4875 17.8998 5.74375 17.9998 6 17.9998C6.25625 17.9998 6.5125 17.9029 6.70625 17.7061C7.09688 17.3154 7.09688 16.6811 6.70625 16.2904L5.41563 14.9998L6 14.4154L7.29375 15.7092C7.68437 16.0998 8.31875 16.0998 8.70937 15.7092C9.1 15.3186 9.1 14.6842 8.70937 14.2936L7.41563 12.9998L10.1062 10.3092C9.53437 9.9498 9.05 9.46543 8.69063 8.89355L3.29375 14.2936C3.09687 14.4873 3 14.7436 3 14.9998Z" fill="#6981FF"/>
<path d="M12.5 4C13.163 4 13.7989 4.26339 14.2678 4.73223C14.7366 5.20107 15 5.83696 15 6.5C15 7.16304 14.7366 7.79893 14.2678 8.26777C13.7989 8.73661 13.163 9 12.5 9C11.837 9 11.2011 8.73661 10.7322 8.26777C10.2634 7.79893 10 7.16304 10 6.5C10 5.83696 10.2634 5.20107 10.7322 4.73223C11.2011 4.26339 11.837 4 12.5 4ZM12.5 11C13.6935 11 14.8381 10.5259 15.682 9.68198C16.5259 8.83807 17 7.69347 17 6.5C17 5.30653 16.5259 4.16193 15.682 3.31802C14.8381 2.47411 13.6935 2 12.5 2C11.3065 2 10.1619 2.47411 9.31802 3.31802C8.47411 4.16193 8 5.30653 8 6.5C8 7.69347 8.47411 8.83807 9.31802 9.68198C10.1619 10.5259 11.3065 11 12.5 11Z" fill="#6981FF"/>
</svg>
