<svg xmlns="http://www.w3.org/2000/svg" fill="none" viewBox="0 0 170 43"><g clip-path="url(#a)"><path d="m21.625 4.5703v-4.7151h-14.134v0.016458c0 1.0739 0.36325 2.0613 0.97004 2.8513 0.00619 0.00822 0.01135 0.01542 0.01651 0.02262s0.01032 0.0144 0.01651 0.02263c0.11971 0.15223 0.24767 0.30035 0.38801 0.43613 0.78016 0.7735 1.8369 1.2754 3.0051 1.3536h5.0194v0.01646h4e-3v5.9h0.0165c1.0774 0 2.0681-0.3621 2.8606-0.96686l0.0124-0.01235c0.0041-0.00411 0.0093-0.0072 0.0145-0.01028v-1e-5c0.0051-0.00309 0.0103-0.00617 0.0144-0.01028 0.1527-0.11932 0.3013-0.24686 0.4376-0.38675 0.3054-0.30446 0.5655-0.65419 0.776-1.0327 0.3302-0.58835 0.5366-1.2549 0.582-1.9626v-0.01646c-0.0083-0.01076-0.0168-0.02135-0.0254-0.03178l0.0255 0.02768v-1.5018zm83.139 8.7307c-1.375-1.2919-2.943-1.7198-4.7843-1.7198-2.2744 0-3.5293 0.7036-3.5293 1.9173 0 1.2508 1.1393 1.9544 3.6076 2.1107 3.649 0.2345 8.276 1.0574 8.276 6.1798 0 3.4026-2.786 6.3361-8.317 6.3361-3.0589 0-6.1217-0.5101-8.9451-3.4396l2.3528-3.4026c1.3746 1.5265 4.5117 2.6579 6.6703 2.6991 1.804 0.0411 3.492-0.9011 3.492-2.3082 0-1.3289-1.098-1.8762-3.8426-2.0325-3.649-0.2757-8.0038-1.6046-8.0038-5.9823 0-4.4559 4.6314-6.0235 8.1607-6.0235 3.0217 0 5.2957 0.58836 7.5337 2.5427l-2.671 3.1228zm-73.987-5.1224 0.355 2.23c1.4901-2.3863 3.4921-2.736 5.4528-2.736 2.002 0 3.9214 0.78173 4.9823 1.8391l-2.1589 4.1431c-0.9824-0.8228-1.8823-1.2507-3.4508-1.2507-2.5097 0-4.8254 1.3289-4.8254 4.8878v10.167h-4.7883v-19.28h4.4333zm27.933-3e-5h4.5901v19.28h-4.5117l-0.2353-2.8143c-1.098 2.2671-4.1195 3.3615-6.2784 3.4026-5.7294 0.0371-9.9645-3.4807-9.9645-10.245 0-6.6488 4.4332-10.13 10.084-10.088 2.5882 0 5.0607 1.2137 6.1587 3.1269l0.1569-2.662zm-11.612 9.6194c0 3.6742 2.551 5.8671 5.7294 5.8671 7.5333 0 7.5333-11.693 0-11.693-3.1784-0.0042-5.7294 2.1477-5.7294 5.8259zm35.26-0.432v10.092h4.7842v-10.13c0-6.0605-3.649-9.4631-8.1979-9.4631-2.4354 0-4.3961 0.9751-6.3568 2.8924l-0.7925-2.6208h-3.7976v19.317h4.747v-9.8539c0-2.9335 2.0019-5.3981 4.9451-5.3981 3.0587 0 4.6685 2.23 4.6685 5.1636zm42.673-0.2345v10.319h4.785v-10.323c0-2.5385 1.609-4.7685 4.198-4.7685 2.588 0 3.649 2.1518 3.649 4.6945v10.401h4.788v-10.401c0-5.7889-2.704-9.1504-8.198-9.1504-2.51 0-4.747 0.78173-6.472 3.5178-1.103-2.6578-3.414-3.5959-5.73-3.5959-1.845 0-4.082 0.70355-5.102 2.6578l-0.355-2.3451h-4.433v19.317h4.788v-10.323c0-2.5427 1.532-4.8509 4.12-4.8509 2.629 0 3.962 2.3082 3.962 4.8509zm26.918-9.0311h-4.788v19.358h4.788v-19.358zm-136.1 15.19c0.7471 0 1.6099-0.2346 2.3157-0.5884l1.3333 4.0691c-1.3746 0.5472-2.5097 0.7859-3.9627 0.8229-4.198 0.1563-6.943-2.23-6.943-7.0397v-7.731h-0.00413v0.0042h-2.679l-0.00924-0.0016c-0.02083-0.0035-0.03931-0.0067-0.06094-0.0067-1.1682-0.0781-2.2249-0.5801-3.005-1.3536-0.14034-0.1358-0.2683-0.2839-0.38801-0.4361-0.62743-0.7982-1.0031-1.8021-1.0031-2.8966v-0.01646h11.896v12.438c0 1.835 1.0196 2.7361 2.5097 2.7361zm148.08 0.0987c-1.49 0-2.51-0.9011-2.51-2.7361v-7.8585h2.179c0.083 0.0041 0.166 0.0083 0.252 0.0083 0.087 0 0.17-0.0042 0.252-0.0083 1.197-0.0617 2.279-0.5719 3.075-1.3618 0.859-0.8517 1.391-2.0325 1.391-3.3327v-0.01646h-7.157v-3.526l-4.735 1.1808v14.911c0 4.8097 2.745 7.196 6.943 7.0397 1.453-0.0371 2.588-0.2757 3.963-0.8229l-1.333-4.065c-0.71 0.3538-1.573 0.5884-2.32 0.5884zm-39.054 15.528 0.607-1.0368c0.508 0.3538 1.247 0.5636 1.944 0.5636 0.587 0 0.929-0.1892 0.929-0.506 0-0.3292-0.297-0.4855-1.048-0.5514-1.404-0.111-2.242-0.7282-2.242-1.7074 0-1.0245 0.95-1.7198 2.407-1.7198 0.85 0 1.614 0.2304 2.188 0.6172l-0.599 1.0121c-0.454-0.288-0.962-0.4197-1.523-0.4197-0.685 0-1.04 0.1769-1.04 0.5061 0 0.2962 0.276 0.4526 0.949 0.5184 1.581 0.1522 2.353 0.6953 2.353 1.7404 0 1.0573-0.937 1.7527-2.44 1.7527-0.949 0-1.791-0.2757-2.485-0.7694zm7.047-1.6087h4.21c0.244-2.012-0.85-3.3121-2.832-3.3121-1.713 0-2.873 1.1438-2.873 2.8389 0 1.7404 1.173 2.8513 3.018 2.8513 0.949 0 1.824-0.3415 2.398-0.9258l-0.817-0.8352c-0.351 0.3209-0.937 0.5184-1.523 0.5184-0.884 0-1.482-0.4526-1.581-1.1355zm2.831-0.9669h-2.807c0.108-0.7283 0.628-1.1479 1.404-1.1438 0.817 0 1.35 0.4402 1.403 1.1438zm2.118 0.4855c0-1.6951 1.18-2.8389 2.939-2.8389 0.805 0 1.515 0.288 2.097 0.8476l-0.851 0.9134c-0.309-0.3086-0.738-0.4855-1.192-0.4855-0.904 0-1.536 0.6377-1.536 1.5634s0.619 1.5634 1.536 1.5634c0.487 0 0.928-0.1892 1.259-0.5266l0.862 0.9257c-0.619 0.5966-1.312 0.8805-2.154 0.8805-1.8-0.0041-2.96-1.115-2.96-2.843zm11.355 2.7196v-5.4434h-1.469v2.8513c0 0.8353-0.52 1.4195-1.304 1.4195-0.706 0-1.16-0.4855-1.16-1.3207v-2.9501h-1.47v3.0406c0 1.5388 0.896 2.5098 2.254 2.5098 0.718 0 1.35-0.2633 1.779-0.7365l0.099 0.6295h1.271zm5.734-5.0565-0.64 1.1355c-0.309-0.2098-0.574-0.288-0.883-0.288-0.805 0-1.325 0.5596-1.325 1.5511v2.6537h-1.47v-5.4391h1.272l0.119 0.683c0.421-0.5596 0.937-0.7941 1.536-0.7941 0.508 0.0041 1.04 0.1687 1.391 0.4979zm2.147-0.3827h-1.47v5.4392h1.47v-5.4392zm5.168 5.2376c-0.455 0.2099-0.851 0.288-1.338 0.288-1.114 0-1.857-0.5966-1.857-2.016v-2.3123h-0.983v-1.2014h0.983v-1.3866l1.457-0.1522v1.5429h1.469v1.2014h-1.469v2.3123c0 0.4937 0.256 0.7488 0.697 0.7488 0.211 0 0.463-0.0658 0.653-0.1522l0.388 1.1273zm2.872 2.6373 3.414-7.8749h-1.593l-0.871 2.1271-0.632 1.6622-0.573-1.6622-0.805-2.1271h-1.581l2.142 5.3733-1.081 2.5016h1.58z" clip-rule="evenodd" fill="#fff" fill-rule="evenodd"></path><path d="m21.493 5.9278c-0.7801-0.7735-1.8369-1.2755-3.005-1.3536h-1.5769v5.9h0.0165c1.0774 0 2.0681-0.362 2.8606-0.96685 0.0042-0.00411 0.0083-0.00823 0.0124-0.01234 0.0083-0.00823 0.0206-0.01234 0.0289-0.02057 0.1527-0.11932 0.3013-0.24686 0.4375-0.38675 0.3055-0.30447 0.5656-0.65419 0.7761-1.0327 0.3302-0.58836 0.5366-1.2549 0.582-1.9626v-0.01645c-0.0413-0.05349-0.0867-0.10286-0.1321-0.14812z" fill="#DD112D"></path><path d="m21.626 4.5703v-4.7151h-14.134v0.016458c0 1.0739 0.36325 2.0613 0.97003 2.8513 0.01239 0.01645 0.02064 0.0288 0.03303 0.04525 0.1197 0.15223 0.24767 0.30035 0.38801 0.43613 0.78016 0.7735 1.8368 1.2754 3.005 1.3536h5.0194v0.01646h1.5769c1.1681 0.07817 2.2249 0.58012 3.005 1.3536 0.0454 0.04525 0.0908 0.09463 0.1362 0.144v-1.5018z" fill="#FF2D4E"></path></g><defs><clipPath id="a"><rect width="170" height="42.988" fill="#fff"></rect></clipPath></defs></svg>