<svg width="157" height="28" viewBox="0 0 157 28" fill="none" xmlns="http://www.w3.org/2000/svg">
<path fill-rule="evenodd" clip-rule="evenodd" d="M19.2501 5.19861V0.797852H6.05836V0.813213C6.05836 1.81552 6.39739 2.73709 6.96373 3.47443C6.96951 3.48211 6.97432 3.48883 6.97914 3.49555C6.98395 3.50227 6.98877 3.50899 6.99455 3.51667C7.10628 3.65875 7.22571 3.797 7.35669 3.92371C8.08484 4.64566 9.07113 5.11418 10.1615 5.18707H14.8462V5.20244H14.85V10.7091H14.8654C15.8709 10.7091 16.7956 10.3711 17.5353 9.80666L17.5468 9.79514C17.5507 9.79129 17.5555 9.78842 17.5604 9.78553C17.5651 9.78266 17.57 9.77977 17.5738 9.77594C17.7163 9.66457 17.855 9.54554 17.9822 9.41497C18.2673 9.1308 18.51 8.80439 18.7065 8.45112C19.0147 7.90198 19.2073 7.27988 19.2497 6.61936V6.604C19.2419 6.59396 19.234 6.58407 19.226 6.57434L19.2498 6.60018L19.2501 5.19861ZM16.0178 22.1218C15.359 22.4521 14.5537 22.671 13.8565 22.671C12.4657 22.671 11.5141 21.8301 11.5141 20.1173V8.50849H0.411133V8.52385C0.411133 9.54529 0.761721 10.4823 1.34736 11.2273C1.45909 11.3694 1.57852 11.5076 1.7095 11.6344C2.43765 12.3563 3.42394 12.8247 4.51417 12.8977C4.53436 12.8977 4.5516 12.9006 4.57105 12.904L4.57967 12.9054H7.08007V12.9016H7.08392V20.1171C7.08392 24.6062 9.64592 26.8334 13.5641 26.6875C14.9202 26.6529 15.9796 26.4302 17.2626 25.9195L16.0178 22.1218ZM27.7918 8.56608L28.1231 10.6474C29.5139 8.42011 31.3824 8.09372 33.2124 8.09372C35.0809 8.09372 36.8724 8.82333 37.8625 9.81021L35.8476 13.6772C34.9307 12.9092 34.0907 12.5098 32.6268 12.5098C30.2844 12.5098 28.1231 13.7502 28.1231 17.0718V26.561H23.654V8.56636L27.7918 8.56608ZM58.1466 8.56604H53.8625L53.716 11.0506C52.6912 9.26492 50.3836 8.13204 47.9679 8.13204C42.6937 8.09364 38.5562 11.3424 38.5562 17.5475C38.5562 23.8606 42.5089 27.144 47.8564 27.1095C49.8714 27.0711 52.6914 26.0496 53.7162 23.9337L53.9358 26.5603H58.1468L58.1466 8.56604ZM48.3727 23.0206C45.4062 23.0206 43.0253 20.9738 43.0253 17.5446C43.0253 14.1115 45.4062 12.1032 48.3727 12.107C55.4038 12.107 55.4038 23.0206 48.3727 23.0206ZM75.935 26.5573V17.1418C75.935 14.4039 74.4325 12.3225 71.5777 12.3225C68.8307 12.3225 66.9623 14.6227 66.9623 17.3607V26.5577H62.5317V8.52852H66.0762L66.8158 10.9747C68.6458 9.18522 70.4758 8.27512 72.7489 8.27512C76.9945 8.27512 80.4002 11.4508 80.4002 17.1073V26.5619H75.935V26.5573ZM92.3822 11.7425C94.1007 11.7425 95.5642 12.1418 96.8475 13.3476L99.3405 10.433C97.2517 8.60888 95.1293 8.0598 92.309 8.0598C89.015 8.0598 84.6923 9.52289 84.6923 13.6816C84.6923 17.7675 88.7568 19.0079 92.1626 19.2651C94.7242 19.4111 95.749 19.9218 95.749 21.1621C95.749 22.4755 94.1735 23.3548 92.4898 23.3164C90.4751 23.2781 87.5471 22.222 86.2642 20.7974L84.0682 23.9731C86.7034 26.7072 89.562 27.1834 92.417 27.1834C97.5793 27.1834 100.18 24.4454 100.18 21.2696C100.18 16.4887 95.861 15.7208 92.4553 15.5018C90.1515 15.3559 89.0882 14.6993 89.0882 13.5319C89.0882 12.3991 90.2594 11.7425 92.3822 11.7425ZM115.763 26.5535V16.9225C115.763 14.5493 114.519 12.395 112.065 12.395C109.65 12.395 108.22 14.5493 108.22 16.9225V26.5573H103.751V8.52805H107.889L108.22 10.7169C109.172 8.89289 111.26 8.2362 112.982 8.2362C115.143 8.2362 117.3 9.11174 118.33 11.5925C119.94 9.03877 122.028 8.30919 124.37 8.30919C129.498 8.30919 132.022 11.4465 132.022 16.8495V26.5571H127.553V16.8495C127.553 14.4764 126.563 12.468 124.147 12.468C121.731 12.468 120.229 14.5493 120.229 16.9186V26.5534L115.763 26.5535ZM136.418 8.49352H140.887V26.561H136.418V8.49352ZM152.063 22.7633C150.673 22.7633 149.721 21.9223 149.721 20.2096V12.8751H151.754C151.832 12.8789 151.909 12.8827 151.99 12.8827C152.071 12.8827 152.148 12.8789 152.225 12.8751C153.342 12.8175 154.352 12.3413 155.095 11.6039C155.896 10.8091 156.393 9.70695 156.393 8.49352V8.47816H149.713V5.18722L145.294 6.2893V20.2053C145.294 24.6944 147.856 26.9217 151.774 26.7757C153.13 26.7412 154.189 26.5185 155.473 26.0077L154.229 22.2137C153.566 22.544 152.76 22.7633 152.063 22.7633Z" fill="#1C2745"/>
<path d="M19.2501 0.797852V5.19861L19.2498 6.60018L19.226 6.57434C19.234 6.58407 19.2419 6.59396 19.2497 6.604V6.61936C19.2073 7.27988 19.0147 7.90198 18.7065 8.45112C18.51 8.80439 18.2673 9.1308 17.9822 9.41497C17.855 9.54554 17.7163 9.66457 17.5738 9.77594C17.57 9.77977 17.5651 9.78266 17.5604 9.78553C17.5555 9.78842 17.5507 9.79129 17.5468 9.79514L17.5353 9.80666C16.7956 10.3711 15.8709 10.7091 14.8654 10.7091H14.85V5.20244H14.8462V5.18707H10.1615C9.07113 5.11418 8.08484 4.64566 7.35669 3.92371C7.22571 3.797 7.10628 3.65875 6.99455 3.51667C6.98877 3.50899 6.98395 3.50227 6.97914 3.49555C6.97432 3.48883 6.96951 3.48211 6.96373 3.47443C6.39739 2.73709 6.05836 1.81552 6.05836 0.813213V0.797852H19.2501Z" fill="#1C2745"/>
<path d="M13.8565 22.671C14.5537 22.671 15.359 22.4521 16.0178 22.1218L17.2626 25.9195C15.9796 26.4302 14.9202 26.6529 13.5641 26.6875C9.64592 26.8334 7.08392 24.6062 7.08392 20.1171V12.9016H7.08007V12.9054H4.57967L4.57105 12.904C4.5516 12.9006 4.53436 12.8977 4.51417 12.8977C3.42394 12.8247 2.43765 12.3563 1.7095 11.6344C1.57852 11.5076 1.45909 11.3694 1.34736 11.2273C0.761721 10.4823 0.411133 9.54529 0.411133 8.52385V8.50849H11.5141V20.1173C11.5141 21.8301 12.4657 22.671 13.8565 22.671Z" fill="#1C2745"/>
<path d="M19.2501 0.797852V5.19861L19.2498 6.60018L19.226 6.57434C19.234 6.58407 19.2419 6.59396 19.2497 6.604V6.61936C19.2073 7.27988 19.0147 7.90198 18.7065 8.45112C18.51 8.80439 18.2673 9.1308 17.9822 9.41497C17.855 9.54554 17.7163 9.66457 17.5738 9.77594C17.57 9.77977 17.5651 9.78266 17.5604 9.78553C17.5555 9.78842 17.5507 9.79129 17.5468 9.79514L17.5353 9.80666C16.7956 10.3711 15.8709 10.7091 14.8654 10.7091H14.85V5.20244H14.8462V5.18707H10.1615C9.07113 5.11418 8.08484 4.64566 7.35669 3.92371C7.22571 3.797 7.10628 3.65875 6.99455 3.51667C6.98877 3.50899 6.98395 3.50227 6.97914 3.49555C6.97432 3.48883 6.96951 3.48211 6.96373 3.47443C6.39739 2.73709 6.05836 1.81552 6.05836 0.813213V0.797852H19.2501Z" fill="#1C2745"/>
<path d="M13.8565 22.671C14.5537 22.671 15.359 22.4521 16.0178 22.1218L17.2626 25.9195C15.9796 26.4302 14.9202 26.6529 13.5641 26.6875C9.64592 26.8334 7.08392 24.6062 7.08392 20.1171V12.9016H7.08007V12.9054H4.57967L4.57105 12.904C4.5516 12.9006 4.53436 12.8977 4.51417 12.8977C3.42394 12.8247 2.43765 12.3563 1.7095 11.6344C1.57852 11.5076 1.45909 11.3694 1.34736 11.2273C0.761721 10.4823 0.411133 9.54529 0.411133 8.52385V8.50849H11.5141V20.1173C11.5141 21.8301 12.4657 22.671 13.8565 22.671Z" fill="#1C2745"/>
<path d="M19.2501 0.797852V5.19861L19.2498 6.60018L19.226 6.57434C19.234 6.58407 19.2419 6.59396 19.2497 6.604V6.61936C19.2073 7.27988 19.0147 7.90198 18.7065 8.45112C18.51 8.80439 18.2673 9.1308 17.9822 9.41497C17.855 9.54554 17.7163 9.66457 17.5738 9.77594C17.57 9.77977 17.5651 9.78266 17.5604 9.78553C17.5555 9.78842 17.5507 9.79129 17.5468 9.79514L17.5353 9.80665C16.7956 10.3711 15.8709 10.7091 14.8654 10.7091H14.85V5.20244H14.8462V5.18707H10.1615C9.07113 5.11418 8.08484 4.64566 7.35669 3.92371C7.22571 3.797 7.10628 3.65875 6.99455 3.51667C6.98877 3.50899 6.98395 3.50227 6.97914 3.49555C6.97432 3.48883 6.96951 3.48211 6.96373 3.47443C6.39739 2.73709 6.05836 1.81552 6.05836 0.813213V0.797852H19.2501Z" fill="#1C2745"/>
<path d="M13.8565 22.671C14.5537 22.671 15.359 22.4521 16.0178 22.1218L17.2626 25.9195C15.9796 26.4302 14.9202 26.6529 13.5641 26.6875C9.64592 26.8334 7.08392 24.6062 7.08392 20.1171V12.9016H7.08007V12.9054H4.57967L4.57105 12.904C4.5516 12.9006 4.53436 12.8977 4.51417 12.8977C3.42394 12.8247 2.43765 12.3563 1.7095 11.6344C1.57852 11.5076 1.45909 11.3694 1.34736 11.2273C0.761721 10.4823 0.411133 9.54529 0.411133 8.52385V8.50849H11.5141V20.1173C11.5141 21.8301 12.4657 22.671 13.8565 22.671Z" fill="#1C2745"/>
<path d="M19.1268 6.466C18.3987 5.74406 17.4123 5.27553 16.3221 5.20264H14.8503V10.7093H14.8657C15.8713 10.7093 16.796 10.3714 17.5356 9.80691C17.5396 9.80307 17.5434 9.79923 17.5472 9.79539C17.555 9.78771 17.5664 9.78387 17.5742 9.77619C17.7167 9.66483 17.8554 9.54579 17.9825 9.41523C18.2676 9.13106 18.5104 8.80465 18.7069 8.45137C19.0151 7.90224 19.2077 7.28013 19.2501 6.61961V6.60426C19.2115 6.55434 19.1692 6.50826 19.1268 6.46602V6.466Z" fill="#DD112D"/>
<path d="M19.2511 5.19861V0.797852H6.05933V0.813213C6.05933 1.81552 6.39836 2.73709 6.96469 3.47443C6.97625 3.48979 6.98395 3.50131 6.99552 3.51667C7.10724 3.65875 7.22667 3.797 7.35766 3.92371C8.08581 4.64566 9.072 5.11418 10.1623 5.18707H14.8471V5.20244H16.3189C17.4091 5.2754 18.3954 5.74389 19.1235 6.4658C19.1659 6.50804 19.2083 6.55412 19.2507 6.60021V5.19853L19.2511 5.19861Z" fill="#FF2D4E"/>
</svg>
