<svg width="50" height="40" viewBox="0 0 50 40" fill="none" xmlns="http://www.w3.org/2000/svg">
<path d="M46.6641 32.4842C46.8167 31.6702 46.8167 30.8264 46.6641 30.0124L48.1618 29.1397C48.3363 29.0453 48.4161 28.8417 48.358 28.6455C47.9654 27.3947 47.2963 26.2533 46.4244 25.3088C46.2936 25.1634 46.0754 25.1271 45.9011 25.2288L44.4034 26.0937C43.7709 25.5556 43.044 25.1343 42.2589 24.8578V23.0546C42.2589 22.8581 42.1135 22.6838 41.9244 22.6473C40.6307 22.3564 39.3072 22.3638 38.0713 22.6473C37.8829 22.7499 37.7422 22.9296 37.7422 23.0546V24.7921C36.9571 25.0684 36.2297 25.4899 35.5977 26.028L34.093 25.1631C33.9259 25.0613 33.7077 25.0977 33.5698 25.2431C32.6971 26.1884 32.0284 27.3298 31.6432 28.5798C31.5851 28.776 31.6651 28.9795 31.8323 29.074L33.33 29.9467C33.1847 30.7607 33.1847 31.6037 33.33 32.4185L31.8323 33.2912C31.6578 33.3856 31.5851 33.5893 31.6432 33.7856C32.0286 35.0363 32.6971 36.1699 33.5698 37.1223C33.7078 37.2678 33.9188 37.3042 34.093 37.2024L35.5977 36.3375C36.23 36.8756 36.9571 37.2969 37.7422 37.5735V39.311C37.7422 39.5074 37.8805 39.6817 38.0694 39.7181C39.371 40.0089 40.6866 40.0016 41.9225 39.7181C42.1116 39.6818 42.257 39.5074 42.257 39.311V37.5735C43.0421 37.2973 43.7695 36.8756 44.4015 36.3375L45.8992 37.2024C46.0664 37.3042 46.2918 37.2678 46.4225 37.1223C47.2952 36.177 47.9639 35.0363 48.3561 33.7856C48.4143 33.5893 48.3345 33.3856 48.1599 33.2912L46.6641 32.4842ZM40 33.7499C38.6196 33.7499 37.5 32.6303 37.5 31.2499C37.5 29.8694 38.6196 28.7499 40 28.7499C41.3805 28.7499 42.5 29.8694 42.5 31.2499C42.5 32.6327 41.3828 33.7499 40 33.7499Z" fill="#6981FF"/>
<path d="M14.3672 16.875C14.3672 16.4493 14.4439 16.0445 14.4929 15.632C13.6406 15.1641 12.7031 15 11.7109 15H6.88125C3.08125 15 0 18.2656 0 22.2891C0 23.0937 0.616172 23.75 1.37656 23.75H16.9625C15.3672 21.8906 14.3672 19.5078 14.3672 16.875ZM10 12.5C13.4516 12.5 16.25 9.70156 16.25 6.25C16.25 2.79844 13.4531 0 10 0C6.54844 0 3.75 2.79844 3.75 6.25C3.75 9.70156 6.54844 12.5 10 12.5ZM28.75 31.25C28.75 29.9461 29.0155 28.7141 29.4234 27.55C29.2422 27.5391 29.0781 27.5 28.8984 27.5H21.1016C14.9688 27.5 10 32.1641 10 37.9141C10 39.0703 10.9922 40 12.2187 40H33.0078C30.4297 37.9375 28.75 34.8047 28.75 31.25ZM43.1172 15H38.2859C37.2859 15 36.3422 15.2373 35.4844 15.6438C35.5313 16.0547 35.6094 16.4531 35.6094 16.875C35.6094 18.5523 35.1699 20.1078 34.4648 21.5109C36.1094 20.5781 37.9766 20 40 20C43.3187 20 46.2711 21.4641 48.3281 23.75H48.6216C49.3828 23.75 50 23.0937 50 22.2891C50 18.2656 46.9219 15 43.1172 15ZM40 12.5C43.4516 12.5 46.25 9.70156 46.25 6.25C46.25 2.79844 43.4531 0 40 0C36.5484 0 33.75 2.79844 33.75 6.25C33.75 9.70156 36.5469 12.5 40 12.5ZM24.9922 8.75C20.507 8.75 16.9375 12.3875 16.9375 16.875C16.9375 21.3625 20.5742 25 24.9922 25C29.4773 25 33.0469 21.3625 33.0469 16.875C33.1094 12.3906 29.4766 8.75 24.9922 8.75Z" fill="#C3CDFF"/>
</svg>
